<?xml version="1.0" encoding="UTF-8" standalone="no"?>
<!DOCTYPE svg PUBLIC "-//W3C//DTD SVG 1.1//EN"
 "http://www.w3.org/Graphics/SVG/1.1/DTD/svg11.dtd">
<!-- Generated by graphviz version 2.40.1 (20161225.0304)
 -->
<!-- Title: finite_state_machine Pages: 1 -->
<svg width="576pt" height="195pt"
 viewBox="0.00 0.00 576.00 195.18" xmlns="http://www.w3.org/2000/svg" xmlns:xlink="http://www.w3.org/1999/xlink">
<g id="graph0" class="graph" transform="scale(.8956 .8956) rotate(0) translate(4 213.9428)">
<title>finite_state_machine</title>
<polygon fill="#ffffff" stroke="transparent" points="-4,4 -4,-213.9428 639.1788,-213.9428 639.1788,4 -4,4"/>
<!-- init -->
<g id="node1" class="node">
<title>init</title>
<ellipse fill="#000000" stroke="#000000" cx="1.8" cy="-121.6385" rx="1.8" ry="1.8"/>
</g>
<!-- EINIT -->
<g id="node3" class="node">
<title>EINIT</title>
<ellipse fill="none" stroke="#ff0000" cx="76.8363" cy="-121.6385" rx="36.4742" ry="36.4742"/>
<text text-anchor="middle" x="76.8363" y="-117.4385" font-family="Times,serif" font-size="14.00" fill="#000000">EINIT</text>
</g>
<!-- init&#45;&gt;EINIT -->
<g id="edge1" class="edge">
<title>init&#45;&gt;EINIT</title>
<path fill="none" stroke="#000000" d="M3.6548,-121.6385C7.7806,-121.6385 18.2899,-121.6385 30.0983,-121.6385"/>
<polygon fill="#000000" stroke="#000000" points="30.2112,-125.1386 40.2111,-121.6385 30.2111,-118.1386 30.2112,-125.1386"/>
</g>
<!-- EFLOAT -->
<g id="node2" class="node">
<title>EFLOAT</title>
<ellipse fill="none" stroke="#000000" cx="387.7167" cy="-121.6385" rx="48.0881" ry="48.0881"/>
<ellipse fill="none" stroke="#000000" cx="387.7167" cy="-121.6385" rx="52.0916" ry="52.0916"/>
<text text-anchor="middle" x="387.7167" y="-117.4385" font-family="Times,serif" font-size="14.00" fill="#000000">EFLOAT</text>
</g>
<!-- EFLOAT&#45;&gt;EFLOAT -->
<g id="edge4" class="edge">
<title>EFLOAT&#45;&gt;EFLOAT</title>
<path fill="none" stroke="#000000" d="M374.9449,-172.3252C376.145,-183.5264 380.4022,-191.6843 387.7167,-191.6843 392.6311,-191.6843 396.1654,-188.0017 398.3196,-182.1877"/>
<polygon fill="#000000" stroke="#000000" points="401.759,-182.8436 400.4884,-172.3252 394.9223,-181.3402 401.759,-182.8436"/>
<text text-anchor="middle" x="387.7167" y="-195.8843" font-family="Times,serif" font-size="14.00" fill="#000000">0&#45;9</text>
</g>
<!-- token LITDEC + val sem -->
<g id="node4" class="node">
<title>token LITDEC + val sem</title>
<polygon fill="none" stroke="#0000ff" points="635.3876,-139.6385 476.5537,-139.6385 476.5537,-103.6385 635.3876,-103.6385 635.3876,-139.6385"/>
<text text-anchor="middle" x="555.9706" y="-117.4385" font-family="Times,serif" font-size="14.00" fill="#000000">token LITDEC + val sem</text>
</g>
<!-- EFLOAT&#45;&gt;token LITDEC + val sem -->
<g id="edge5" class="edge">
<title>EFLOAT&#45;&gt;token LITDEC + val sem</title>
<path fill="none" stroke="#0000ff" d="M440.031,-121.6385C448.4417,-121.6385 457.35,-121.6385 466.3425,-121.6385"/>
<polygon fill="#0000ff" stroke="#0000ff" points="476.509,-121.6385 466.509,-126.1386 471.509,-121.6386 466.509,-121.6386 466.509,-121.6386 466.509,-121.6386 471.509,-121.6386 466.5089,-117.1386 476.509,-121.6385 476.509,-121.6385"/>
</g>
<!-- EP -->
<g id="node5" class="node">
<title>EP</title>
<ellipse fill="none" stroke="#000000" cx="224.3717" cy="-187.6385" rx="22.1102" ry="22.1102"/>
<text text-anchor="middle" x="224.3717" y="-183.4385" font-family="Times,serif" font-size="14.00" fill="#000000">EP</text>
</g>
<!-- EINIT&#45;&gt;EP -->
<g id="edge2" class="edge">
<title>EINIT&#45;&gt;EP</title>
<path fill="none" stroke="#000000" d="M109.9461,-136.4502C135.2967,-147.7908 169.9635,-163.299 194.4773,-174.2653"/>
<polygon fill="#000000" stroke="#000000" points="193.0997,-177.4832 203.6572,-178.3719 195.9582,-171.0934 193.0997,-177.4832"/>
<text text-anchor="middle" x="140.4029" y="-156.8385" font-family="Times,serif" font-size="14.00" fill="#000000">.</text>
</g>
<!-- ECHIFFRE -->
<g id="node6" class="node">
<title>ECHIFFRE</title>
<ellipse fill="none" stroke="#000000" cx="224.3717" cy="-56.6385" rx="56.7774" ry="56.7774"/>
<text text-anchor="middle" x="224.3717" y="-52.4385" font-family="Times,serif" font-size="14.00" fill="#000000">ECHIFFRE</text>
</g>
<!-- EINIT&#45;&gt;ECHIFFRE -->
<g id="edge6" class="edge">
<title>EINIT&#45;&gt;ECHIFFRE</title>
<path fill="none" stroke="#000000" d="M110.3144,-106.889C125.9523,-99.9994 145.0749,-91.5745 163.16,-83.6067"/>
<polygon fill="#000000" stroke="#000000" points="164.7588,-86.727 172.4989,-79.4923 161.9365,-80.3212 164.7588,-86.727"/>
<text text-anchor="middle" x="140.4029" y="-100.8385" font-family="Times,serif" font-size="14.00" fill="#000000">0&#45;9</text>
</g>
<!-- EP&#45;&gt;EFLOAT -->
<g id="edge3" class="edge">
<title>EP&#45;&gt;EFLOAT</title>
<path fill="none" stroke="#000000" d="M245.0595,-179.2796C266.2846,-170.7035 300.2765,-156.969 329.7559,-145.0578"/>
<polygon fill="#000000" stroke="#000000" points="331.1861,-148.2549 339.1466,-141.2634 328.5636,-141.7646 331.1861,-148.2549"/>
<text text-anchor="middle" x="308.3406" y="-159.8385" font-family="Times,serif" font-size="14.00" fill="#000000">0&#45;9</text>
</g>
<!-- ECHIFFRE&#45;&gt;EFLOAT -->
<g id="edge8" class="edge">
<title>ECHIFFRE&#45;&gt;EFLOAT</title>
<path fill="none" stroke="#000000" d="M277.4052,-77.7422C294.147,-84.4043 312.7271,-91.7979 329.7922,-98.5886"/>
<polygon fill="#000000" stroke="#000000" points="328.5102,-101.8453 339.0957,-102.2907 331.0984,-95.3414 328.5102,-101.8453"/>
<text text-anchor="middle" x="308.3406" y="-97.8385" font-family="Times,serif" font-size="14.00" fill="#000000">.</text>
</g>
<!-- ECHIFFRE&#45;&gt;ECHIFFRE -->
<g id="edge7" class="edge">
<title>ECHIFFRE&#45;&gt;ECHIFFRE</title>
<path fill="none" stroke="#000000" d="M209.4932,-111.3145C211.004,-122.9062 215.9635,-131.2771 224.3717,-131.2771 230.1524,-131.2771 234.303,-127.3205 236.8235,-121.0809"/>
<polygon fill="#000000" stroke="#000000" points="240.2355,-121.8634 239.2503,-111.3145 233.4421,-120.1753 240.2355,-121.8634"/>
<text text-anchor="middle" x="224.3717" y="-135.4771" font-family="Times,serif" font-size="14.00" fill="#000000">0&#45;9</text>
</g>
</g>
</svg>
