<?xml version="1.0" encoding="UTF-8" standalone="no"?>
<!DOCTYPE svg PUBLIC "-//W3C//DTD SVG 1.1//EN"
 "http://www.w3.org/Graphics/SVG/1.1/DTD/svg11.dtd">
<!-- Generated by graphviz version 2.40.1 (20161225.0304)
 -->
<!-- Title: finite_state_machine Pages: 1 -->
<svg width="576pt" height="177pt"
 viewBox="0.00 0.00 576.00 177.14" xmlns="http://www.w3.org/2000/svg" xmlns:xlink="http://www.w3.org/1999/xlink">
<g id="graph0" class="graph" transform="scale(.5255 .5255) rotate(0) translate(4 333.0673)">
<title>finite_state_machine</title>
<polygon fill="#ffffff" stroke="transparent" points="-4,4 -4,-333.0673 1092.0473,-333.0673 1092.0473,4 -4,4"/>
<!-- init -->
<g id="node1" class="node">
<title>init</title>
<ellipse fill="#000000" stroke="#000000" cx="1.8" cy="-175.7631" rx="1.8" ry="1.8"/>
</g>
<!-- EINIT -->
<g id="node4" class="node">
<title>EINIT</title>
<ellipse fill="none" stroke="#ff0000" cx="76.8363" cy="-175.7631" rx="36.4742" ry="36.4742"/>
<text text-anchor="middle" x="76.8363" y="-171.5631" font-family="Times,serif" font-size="14.00" fill="#000000">EINIT</text>
</g>
<!-- init&#45;&gt;EINIT -->
<g id="edge1" class="edge">
<title>init&#45;&gt;EINIT</title>
<path fill="none" stroke="#000000" d="M3.6548,-175.7631C7.7806,-175.7631 18.2899,-175.7631 30.0983,-175.7631"/>
<polygon fill="#000000" stroke="#000000" points="30.2112,-179.2632 40.2111,-175.7631 30.2111,-172.2632 30.2112,-179.2632"/>
</g>
<!-- EFLOAT -->
<g id="node2" class="node">
<title>EFLOAT</title>
<ellipse fill="none" stroke="#000000" cx="823.4799" cy="-94.7631" rx="48.0881" ry="48.0881"/>
<ellipse fill="none" stroke="#000000" cx="823.4799" cy="-94.7631" rx="52.0916" ry="52.0916"/>
<text text-anchor="middle" x="823.4799" y="-90.5631" font-family="Times,serif" font-size="14.00" fill="#000000">EFLOAT</text>
</g>
<!-- EFLOAT&#45;&gt;EFLOAT -->
<g id="edge4" class="edge">
<title>EFLOAT&#45;&gt;EFLOAT</title>
<path fill="none" stroke="#000000" d="M810.7082,-145.4498C811.9082,-156.6509 816.1655,-164.8088 823.4799,-164.8088 828.3943,-164.8088 831.9286,-161.1262 834.0829,-155.3123"/>
<polygon fill="#000000" stroke="#000000" points="837.5222,-155.9681 836.2516,-145.4498 830.6856,-154.4647 837.5222,-155.9681"/>
<text text-anchor="middle" x="823.4799" y="-169.0088" font-family="Times,serif" font-size="14.00" fill="#000000">0&#45;9</text>
</g>
<!-- token LITFLOAT + val sem -->
<g id="node5" class="node">
<title>token LITFLOAT + val sem</title>
<polygon fill="none" stroke="#0000ff" points="1087.8088,-169.7631 912.7643,-169.7631 912.7643,-133.7631 1087.8088,-133.7631 1087.8088,-169.7631"/>
<text text-anchor="middle" x="1000.2865" y="-147.5631" font-family="Times,serif" font-size="14.00" fill="#000000">token LITFLOAT + val sem</text>
</g>
<!-- EFLOAT&#45;&gt;token LITFLOAT + val sem -->
<g id="edge10" class="edge">
<title>EFLOAT&#45;&gt;token LITFLOAT + val sem</title>
<path fill="none" stroke="#0000ff" d="M873.2009,-110.7924C892.3348,-116.9609 914.4801,-124.1003 934.8718,-130.6743"/>
<polygon fill="#0000ff" stroke="#0000ff" points="944.4092,-133.749 933.5108,-134.9635 939.6504,-132.2148 934.8916,-130.6806 934.8916,-130.6806 934.8916,-130.6806 939.6504,-132.2148 936.2724,-126.3976 944.4092,-133.749 944.4092,-133.749"/>
</g>
<!-- EDEC -->
<g id="node3" class="node">
<title>EDEC</title>
<ellipse fill="none" stroke="#000000" cx="375.9178" cy="-175.7631" rx="36.4707" ry="36.4707"/>
<ellipse fill="none" stroke="#000000" cx="375.9178" cy="-175.7631" rx="40.4954" ry="40.4954"/>
<text text-anchor="middle" x="375.9178" y="-171.5631" font-family="Times,serif" font-size="14.00" fill="#000000">EDEC</text>
</g>
<!-- EDEC&#45;&gt;token LITFLOAT + val sem -->
<g id="edge5" class="edge">
<title>EDEC&#45;&gt;token LITFLOAT + val sem</title>
<path fill="none" stroke="#0000ff" d="M413.6837,-190.3334C439.9513,-199.1736 476.0059,-208.7631 508.8121,-208.7631 508.8121,-208.7631 508.8121,-208.7631 823.4799,-208.7631 870.6475,-208.7631 921.627,-190.1599 956.6689,-174.2091"/>
<polygon fill="#0000ff" stroke="#0000ff" points="966.1134,-169.7982 958.9571,-178.1071 961.5831,-171.914 957.0529,-174.0299 957.0529,-174.0299 957.0529,-174.0299 961.5831,-171.914 955.1486,-169.9526 966.1134,-169.7982 966.1134,-169.7982"/>
</g>
<!-- EDecE -->
<g id="node7" class="node">
<title>EDecE</title>
<ellipse fill="none" stroke="#000000" cx="508.8121" cy="-142.7631" rx="38.2607" ry="38.2607"/>
<text text-anchor="middle" x="508.8121" y="-138.5631" font-family="Times,serif" font-size="14.00" fill="#000000">EDecE</text>
</g>
<!-- EDEC&#45;&gt;EDecE -->
<g id="edge6" class="edge">
<title>EDEC&#45;&gt;EDecE</title>
<path fill="none" stroke="#000000" d="M415.0717,-166.0405C429.6427,-162.4222 446.333,-158.2777 461.554,-154.4981"/>
<polygon fill="#000000" stroke="#000000" points="462.4454,-157.8831 471.3071,-152.0762 460.7583,-151.0894 462.4454,-157.8831"/>
<text text-anchor="middle" x="443.2983" y="-164.9631" font-family="Times,serif" font-size="14.00" fill="#000000">e,E</text>
</g>
<!-- EP -->
<g id="node6" class="node">
<title>EP</title>
<ellipse fill="none" stroke="#000000" cx="224.3717" cy="-306.7631" rx="22.1102" ry="22.1102"/>
<text text-anchor="middle" x="224.3717" y="-302.5631" font-family="Times,serif" font-size="14.00" fill="#000000">EP</text>
</g>
<!-- EINIT&#45;&gt;EP -->
<g id="edge2" class="edge">
<title>EINIT&#45;&gt;EP</title>
<path fill="none" stroke="#000000" d="M98.9238,-204.8838C116.099,-226.2395 141.3721,-255.0102 167.7332,-275.7631 175.9698,-282.2473 185.7467,-288.1309 194.8395,-292.9874"/>
<polygon fill="#000000" stroke="#000000" points="193.4773,-296.2219 203.9742,-297.6587 196.6644,-289.9895 193.4773,-296.2219"/>
<text text-anchor="middle" x="140.4029" y="-262.9631" font-family="Times,serif" font-size="14.00" fill="#000000">.</text>
</g>
<!-- ECHIFFRE -->
<g id="node9" class="node">
<title>ECHIFFRE</title>
<ellipse fill="none" stroke="#000000" cx="224.3717" cy="-175.7631" rx="56.7774" ry="56.7774"/>
<text text-anchor="middle" x="224.3717" y="-171.5631" font-family="Times,serif" font-size="14.00" fill="#000000">ECHIFFRE</text>
</g>
<!-- EINIT&#45;&gt;ECHIFFRE -->
<g id="edge11" class="edge">
<title>EINIT&#45;&gt;ECHIFFRE</title>
<path fill="none" stroke="#000000" d="M113.3057,-175.7631C126.6174,-175.7631 142.128,-175.7631 157.2618,-175.7631"/>
<polygon fill="#000000" stroke="#000000" points="157.6472,-179.2632 167.6472,-175.7631 157.6472,-172.2632 157.6472,-179.2632"/>
<text text-anchor="middle" x="140.4029" y="-179.9631" font-family="Times,serif" font-size="14.00" fill="#000000">0&#45;9</text>
</g>
<!-- E0 -->
<g id="node10" class="node">
<title>E0</title>
<ellipse fill="none" stroke="#000000" cx="224.3717" cy="-79.7631" rx="21.5313" ry="21.5313"/>
<text text-anchor="middle" x="224.3717" y="-75.5631" font-family="Times,serif" font-size="14.00" fill="#000000">E0</text>
</g>
<!-- EINIT&#45;&gt;E0 -->
<g id="edge14" class="edge">
<title>EINIT&#45;&gt;E0</title>
<path fill="none" stroke="#000000" d="M105.5854,-153.2854C123.1167,-139.9877 146.2205,-123.1776 167.7332,-109.7631 176.563,-104.2572 186.4997,-98.7706 195.5563,-94.0239"/>
<polygon fill="#000000" stroke="#000000" points="197.3012,-97.0624 204.5925,-89.3755 194.099,-90.8377 197.3012,-97.0624"/>
<text text-anchor="middle" x="140.4029" y="-137.9631" font-family="Times,serif" font-size="14.00" fill="#000000">0</text>
</g>
<!-- EP&#45;&gt;EDEC -->
<g id="edge3" class="edge">
<title>EP&#45;&gt;EDEC</title>
<path fill="none" stroke="#000000" d="M244.697,-297.5659C255.9237,-292.0242 269.8192,-284.3798 281.0103,-275.7631 303.9475,-258.1022 326.3953,-234.8086 343.6964,-215.1465"/>
<polygon fill="#000000" stroke="#000000" points="346.3944,-217.3776 350.3033,-207.5301 341.1066,-212.7907 346.3944,-217.3776"/>
<text text-anchor="middle" x="308.3406" y="-262.9631" font-family="Times,serif" font-size="14.00" fill="#000000">0&#45;9</text>
</g>
<!-- EDecE&#45;&gt;EFLOAT -->
<g id="edge7" class="edge">
<title>EDecE&#45;&gt;EFLOAT</title>
<path fill="none" stroke="#000000" d="M547.462,-142.2605C589.4633,-141.142 658.3905,-137.6327 716.7735,-126.7631 732.3708,-123.8592 748.9287,-119.5306 764.23,-114.9886"/>
<polygon fill="#000000" stroke="#000000" points="765.5361,-118.2495 774.0811,-111.9858 763.495,-111.5537 765.5361,-118.2495"/>
<text text-anchor="middle" x="658.0105" y="-143.9631" font-family="Times,serif" font-size="14.00" fill="#000000">1&#45;9</text>
</g>
<!-- EDecEsigne -->
<g id="node8" class="node">
<title>EDecEsigne</title>
<ellipse fill="none" stroke="#000000" cx="658.0105" cy="-58.7631" rx="58.5271" ry="58.5271"/>
<text text-anchor="middle" x="658.0105" y="-54.5631" font-family="Times,serif" font-size="14.00" fill="#000000">EDecEsigne</text>
</g>
<!-- EDecE&#45;&gt;EDecEsigne -->
<g id="edge8" class="edge">
<title>EDecE&#45;&gt;EDecEsigne</title>
<path fill="none" stroke="#000000" d="M542.2951,-123.9118C558.6865,-114.6833 578.9293,-103.2864 597.8773,-92.6185"/>
<polygon fill="#000000" stroke="#000000" points="599.7651,-95.5723 606.7619,-87.6165 596.3309,-89.4726 599.7651,-95.5723"/>
<text text-anchor="middle" x="573.2198" y="-114.9631" font-family="Times,serif" font-size="14.00" fill="#000000">+,&#45;</text>
</g>
<!-- EDecEsigne&#45;&gt;EFLOAT -->
<g id="edge9" class="edge">
<title>EDecEsigne&#45;&gt;EFLOAT</title>
<path fill="none" stroke="#000000" d="M715.8837,-71.3541C731.0208,-74.6474 747.382,-78.207 762.6673,-81.5325"/>
<polygon fill="#000000" stroke="#000000" points="762.0173,-84.9729 772.5328,-83.6789 763.5055,-78.1329 762.0173,-84.9729"/>
<text text-anchor="middle" x="744.1038" y="-83.9631" font-family="Times,serif" font-size="14.00" fill="#000000">1&#45;9</text>
</g>
<!-- ECHIFFRE&#45;&gt;EDEC -->
<g id="edge13" class="edge">
<title>ECHIFFRE&#45;&gt;EDEC</title>
<path fill="none" stroke="#000000" d="M281.2331,-175.7631C295.696,-175.7631 311.141,-175.7631 325.2714,-175.7631"/>
<polygon fill="#000000" stroke="#000000" points="325.2954,-179.2632 335.2953,-175.7631 325.2953,-172.2632 325.2954,-179.2632"/>
<text text-anchor="middle" x="308.3406" y="-179.9631" font-family="Times,serif" font-size="14.00" fill="#000000">.</text>
</g>
<!-- ECHIFFRE&#45;&gt;ECHIFFRE -->
<g id="edge12" class="edge">
<title>ECHIFFRE&#45;&gt;ECHIFFRE</title>
<path fill="none" stroke="#000000" d="M209.4932,-230.439C211.004,-242.0307 215.9635,-250.4016 224.3717,-250.4016 230.1524,-250.4016 234.303,-246.445 236.8235,-240.2055"/>
<polygon fill="#000000" stroke="#000000" points="240.2355,-240.988 239.2503,-230.439 233.4421,-239.2999 240.2355,-240.988"/>
<text text-anchor="middle" x="224.3717" y="-254.6016" font-family="Times,serif" font-size="14.00" fill="#000000">0&#45;9</text>
</g>
<!-- E0&#45;&gt;EDEC -->
<g id="edge15" class="edge">
<title>E0&#45;&gt;EDEC</title>
<path fill="none" stroke="#000000" d="M244.093,-89.4696C255.1307,-95.0848 269.0384,-102.4662 281.0103,-109.7631 299.1061,-120.7924 318.421,-133.9521 334.8705,-145.6082"/>
<polygon fill="#000000" stroke="#000000" points="333.0172,-148.5855 343.1897,-151.5472 337.0844,-142.8883 333.0172,-148.5855"/>
<text text-anchor="middle" x="308.3406" y="-135.9631" font-family="Times,serif" font-size="14.00" fill="#000000">.</text>
</g>
</g>
</svg>
