<?xml version="1.0" encoding="UTF-8" standalone="no"?>
<!DOCTYPE svg PUBLIC "-//W3C//DTD SVG 1.1//EN"
 "http://www.w3.org/Graphics/SVG/1.1/DTD/svg11.dtd">
<!-- Generated by graphviz version 2.40.1 (20161225.0304)
 -->
<!-- Title: finite_state_machine Pages: 1 -->
<svg width="576pt" height="248pt"
 viewBox="0.00 0.00 576.00 247.62" xmlns="http://www.w3.org/2000/svg" xmlns:xlink="http://www.w3.org/1999/xlink">
<g id="graph0" class="graph" transform="scale(.6695 .6695) rotate(0) translate(4 365.8525)">
<title>finite_state_machine</title>
<polygon fill="#ffffff" stroke="transparent" points="-4,4 -4,-365.8525 856.3305,-365.8525 856.3305,4 -4,4"/>
<!-- init -->
<g id="node1" class="node">
<title>init</title>
<ellipse fill="#000000" stroke="#000000" cx="1.8" cy="-262.3335" rx="1.8" ry="1.8"/>
</g>
<!-- EINIT -->
<g id="node6" class="node">
<title>EINIT</title>
<ellipse fill="none" stroke="#ff0000" cx="76.8363" cy="-262.3335" rx="36.4742" ry="36.4742"/>
<text text-anchor="middle" x="76.8363" y="-258.1335" font-family="Times,serif" font-size="14.00" fill="#000000">EINIT</text>
</g>
<!-- init&#45;&gt;EINIT -->
<g id="edge1" class="edge">
<title>init&#45;&gt;EINIT</title>
<path fill="none" stroke="#000000" d="M3.6548,-262.3335C7.7806,-262.3335 18.2899,-262.3335 30.0983,-262.3335"/>
<polygon fill="#000000" stroke="#000000" points="30.2112,-265.8336 40.2111,-262.3335 30.2111,-258.8336 30.2112,-265.8336"/>
</g>
<!-- EIF -->
<g id="node2" class="node">
<title>EIF</title>
<ellipse fill="none" stroke="#000000" cx="273.7646" cy="-332.3335" rx="25.5355" ry="25.5355"/>
<ellipse fill="none" stroke="#000000" cx="273.7646" cy="-332.3335" rx="29.5381" ry="29.5381"/>
<text text-anchor="middle" x="273.7646" y="-328.1335" font-family="Times,serif" font-size="14.00" fill="#000000">EIF</text>
</g>
<!-- token IF -->
<g id="node7" class="node">
<title>token IF</title>
<polygon fill="none" stroke="#0000ff" points="413.5813,-350.3335 350.4845,-350.3335 350.4845,-314.3335 413.5813,-314.3335 413.5813,-350.3335"/>
<text text-anchor="middle" x="382.0329" y="-328.1335" font-family="Times,serif" font-size="14.00" fill="#000000">token IF</text>
</g>
<!-- EIF&#45;&gt;token IF -->
<g id="edge4" class="edge">
<title>EIF&#45;&gt;token IF</title>
<path fill="none" stroke="#0000ff" d="M303.3494,-332.3335C314.6974,-332.3335 327.8715,-332.3335 340.1566,-332.3335"/>
<polygon fill="#0000ff" stroke="#0000ff" points="350.2074,-332.3335 340.2075,-336.8336 345.2074,-332.3335 340.2074,-332.3336 340.2074,-332.3336 340.2074,-332.3336 345.2074,-332.3335 340.2074,-327.8336 350.2074,-332.3335 350.2074,-332.3335"/>
</g>
<!-- EELSE -->
<g id="node3" class="node">
<title>EELSE</title>
<ellipse fill="none" stroke="#000000" cx="507.9573" cy="-273.3335" rx="40.0048" ry="40.0048"/>
<ellipse fill="none" stroke="#000000" cx="507.9573" cy="-273.3335" rx="44.005" ry="44.005"/>
<text text-anchor="middle" x="507.9573" y="-269.1335" font-family="Times,serif" font-size="14.00" fill="#000000">EELSE</text>
</g>
<!-- token ELSE -->
<g id="node10" class="node">
<title>token ELSE</title>
<polygon fill="none" stroke="#0000ff" points="699.1205,-291.3335 615.0292,-291.3335 615.0292,-255.3335 699.1205,-255.3335 699.1205,-291.3335"/>
<text text-anchor="middle" x="657.0749" y="-269.1335" font-family="Times,serif" font-size="14.00" fill="#000000">token ELSE</text>
</g>
<!-- EELSE&#45;&gt;token ELSE -->
<g id="edge9" class="edge">
<title>EELSE&#45;&gt;token ELSE</title>
<path fill="none" stroke="#0000ff" d="M552.2937,-273.3335C568.7168,-273.3335 587.4948,-273.3335 604.5754,-273.3335"/>
<polygon fill="#0000ff" stroke="#0000ff" points="614.9549,-273.3335 604.9549,-277.8336 609.9549,-273.3335 604.9549,-273.3336 604.9549,-273.3336 604.9549,-273.3336 609.9549,-273.3335 604.9548,-268.8336 614.9549,-273.3335 614.9549,-273.3335"/>
</g>
<!-- ETHEN -->
<g id="node4" class="node">
<title>ETHEN</title>
<ellipse fill="none" stroke="#000000" cx="507.9573" cy="-164.3335" rx="42.8404" ry="42.8404"/>
<ellipse fill="none" stroke="#000000" cx="507.9573" cy="-164.3335" rx="46.8557" ry="46.8557"/>
<text text-anchor="middle" x="507.9573" y="-160.1335" font-family="Times,serif" font-size="14.00" fill="#000000">ETHEN</text>
</g>
<!-- token THEN -->
<g id="node8" class="node">
<title>token THEN</title>
<polygon fill="none" stroke="#0000ff" points="700.9985,-182.3335 613.1512,-182.3335 613.1512,-146.3335 700.9985,-146.3335 700.9985,-182.3335"/>
<text text-anchor="middle" x="657.0749" y="-160.1335" font-family="Times,serif" font-size="14.00" fill="#000000">token THEN</text>
</g>
<!-- ETHEN&#45;&gt;token THEN -->
<g id="edge14" class="edge">
<title>ETHEN&#45;&gt;token THEN</title>
<path fill="none" stroke="#0000ff" d="M554.7299,-164.3335C570.0041,-164.3335 587.0938,-164.3335 602.8675,-164.3335"/>
<polygon fill="#0000ff" stroke="#0000ff" points="613.0107,-164.3335 603.0108,-168.8336 608.0107,-164.3335 603.0107,-164.3336 603.0107,-164.3336 603.0107,-164.3336 608.0107,-164.3335 603.0107,-159.8336 613.0107,-164.3335 613.0107,-164.3335"/>
</g>
<!-- ETHROW -->
<g id="node5" class="node">
<title>ETHROW</title>
<ellipse fill="none" stroke="#000000" cx="657.0749" cy="-56.3335" rx="52.1792" ry="52.1792"/>
<ellipse fill="none" stroke="#000000" cx="657.0749" cy="-56.3335" rx="56.1674" ry="56.1674"/>
<text text-anchor="middle" x="657.0749" y="-52.1335" font-family="Times,serif" font-size="14.00" fill="#000000">ETHROW</text>
</g>
<!-- token THROW -->
<g id="node9" class="node">
<title>token THROW</title>
<polygon fill="none" stroke="#0000ff" points="852.2916,-74.3335 750.4472,-74.3335 750.4472,-38.3335 852.2916,-38.3335 852.2916,-74.3335"/>
<text text-anchor="middle" x="801.3694" y="-52.1335" font-family="Times,serif" font-size="14.00" fill="#000000">token THROW</text>
</g>
<!-- ETHROW&#45;&gt;token THROW -->
<g id="edge18" class="edge">
<title>ETHROW&#45;&gt;token THROW</title>
<path fill="none" stroke="#0000ff" d="M713.6897,-56.3335C722.3156,-56.3335 731.2524,-56.3335 739.9747,-56.3335"/>
<polygon fill="#0000ff" stroke="#0000ff" points="750.0839,-56.3335 740.084,-60.8336 745.0839,-56.3335 740.0839,-56.3336 740.0839,-56.3336 740.0839,-56.3336 745.0839,-56.3335 740.0839,-51.8336 750.0839,-56.3335 750.0839,-56.3335"/>
</g>
<!-- EI -->
<g id="node11" class="node">
<title>EI</title>
<ellipse fill="none" stroke="#000000" cx="178.1226" cy="-327.3335" rx="20.3026" ry="20.3026"/>
<text text-anchor="middle" x="178.1226" y="-323.1335" font-family="Times,serif" font-size="14.00" fill="#000000">EI</text>
</g>
<!-- EINIT&#45;&gt;EI -->
<g id="edge2" class="edge">
<title>EINIT&#45;&gt;EI</title>
<path fill="none" stroke="#000000" d="M107.5004,-282.012C121.9247,-291.2687 138.9243,-302.1781 152.63,-310.9737"/>
<polygon fill="#000000" stroke="#000000" points="150.7944,-313.9545 161.1008,-316.4098 154.5751,-308.0632 150.7944,-313.9545"/>
<text text-anchor="middle" x="134.1799" y="-304.5335" font-family="Times,serif" font-size="14.00" fill="#000000">i</text>
</g>
<!-- EE -->
<g id="node12" class="node">
<title>EE</title>
<ellipse fill="none" stroke="#000000" cx="178.1226" cy="-262.3335" rx="22.6719" ry="22.6719"/>
<text text-anchor="middle" x="178.1226" y="-258.1335" font-family="Times,serif" font-size="14.00" fill="#000000">EE</text>
</g>
<!-- EINIT&#45;&gt;EE -->
<g id="edge5" class="edge">
<title>EINIT&#45;&gt;EE</title>
<path fill="none" stroke="#000000" d="M113.1169,-262.3335C123.4807,-262.3335 134.7193,-262.3335 144.891,-262.3335"/>
<polygon fill="#000000" stroke="#000000" points="145.0233,-265.8336 155.0233,-262.3335 145.0233,-258.8336 145.0233,-265.8336"/>
<text text-anchor="middle" x="134.1799" y="-266.5335" font-family="Times,serif" font-size="14.00" fill="#000000">e</text>
</g>
<!-- ET -->
<g id="node15" class="node">
<title>ET</title>
<ellipse fill="none" stroke="#000000" cx="178.1226" cy="-192.3335" rx="22.6719" ry="22.6719"/>
<text text-anchor="middle" x="178.1226" y="-188.1335" font-family="Times,serif" font-size="14.00" fill="#000000">ET</text>
</g>
<!-- EINIT&#45;&gt;ET -->
<g id="edge10" class="edge">
<title>EINIT&#45;&gt;ET</title>
<path fill="none" stroke="#000000" d="M106.6777,-241.7098C120.6552,-232.0498 137.1914,-220.6214 150.8331,-211.1935"/>
<polygon fill="#000000" stroke="#000000" points="153.087,-213.8904 159.3236,-205.3256 149.1071,-208.1318 153.087,-213.8904"/>
<text text-anchor="middle" x="134.1799" y="-226.5335" font-family="Times,serif" font-size="14.00" fill="#000000">t</text>
</g>
<!-- EI&#45;&gt;EIF -->
<g id="edge3" class="edge">
<title>EI&#45;&gt;EIF</title>
<path fill="none" stroke="#000000" d="M198.4058,-328.3938C208.7728,-328.9358 221.7591,-329.6147 234.0166,-330.2555"/>
<polygon fill="#000000" stroke="#000000" points="233.8989,-333.754 244.068,-330.781 234.2644,-326.7636 233.8989,-333.754"/>
<text text-anchor="middle" x="222.4579" y="-333.5335" font-family="Times,serif" font-size="14.00" fill="#000000">f</text>
</g>
<!-- EL -->
<g id="node13" class="node">
<title>EL</title>
<ellipse fill="none" stroke="#000000" cx="273.7646" cy="-262.3335" rx="22.6719" ry="22.6719"/>
<text text-anchor="middle" x="273.7646" y="-258.1335" font-family="Times,serif" font-size="14.00" fill="#000000">EL</text>
</g>
<!-- EE&#45;&gt;EL -->
<g id="edge6" class="edge">
<title>EE&#45;&gt;EL</title>
<path fill="none" stroke="#000000" d="M201.2749,-262.3335C213.1402,-262.3335 227.7958,-262.3335 240.8174,-262.3335"/>
<polygon fill="#000000" stroke="#000000" points="240.8256,-265.8336 250.8256,-262.3335 240.8255,-258.8336 240.8256,-265.8336"/>
<text text-anchor="middle" x="222.4579" y="-266.5335" font-family="Times,serif" font-size="14.00" fill="#000000">l</text>
</g>
<!-- EELS -->
<g id="node14" class="node">
<title>EELS</title>
<ellipse fill="none" stroke="#000000" cx="382.0329" cy="-262.3335" rx="34.2065" ry="34.2065"/>
<text text-anchor="middle" x="382.0329" y="-258.1335" font-family="Times,serif" font-size="14.00" fill="#000000">EELS</text>
</g>
<!-- EL&#45;&gt;EELS -->
<g id="edge7" class="edge">
<title>EL&#45;&gt;EELS</title>
<path fill="none" stroke="#000000" d="M296.7256,-262.3335C308.6134,-262.3335 323.5438,-262.3335 337.5772,-262.3335"/>
<polygon fill="#000000" stroke="#000000" points="337.5809,-265.8336 347.5809,-262.3335 337.5808,-258.8336 337.5809,-265.8336"/>
<text text-anchor="middle" x="324.6787" y="-266.5335" font-family="Times,serif" font-size="14.00" fill="#000000">s</text>
</g>
<!-- EELS&#45;&gt;EELSE -->
<g id="edge8" class="edge">
<title>EELS&#45;&gt;EELSE</title>
<path fill="none" stroke="#000000" d="M416.1098,-265.3102C427.7195,-266.3244 441.0021,-267.4847 453.7908,-268.6018"/>
<polygon fill="#000000" stroke="#000000" points="453.6332,-272.1013 463.8999,-269.4849 454.2424,-265.1278 453.6332,-272.1013"/>
<text text-anchor="middle" x="439.7798" y="-271.5335" font-family="Times,serif" font-size="14.00" fill="#000000">e</text>
</g>
<!-- ETH -->
<g id="node16" class="node">
<title>ETH</title>
<ellipse fill="none" stroke="#000000" cx="273.7646" cy="-164.3335" rx="29.6147" ry="29.6147"/>
<text text-anchor="middle" x="273.7646" y="-160.1335" font-family="Times,serif" font-size="14.00" fill="#000000">ETH</text>
</g>
<!-- ET&#45;&gt;ETH -->
<g id="edge11" class="edge">
<title>ET&#45;&gt;ETH</title>
<path fill="none" stroke="#000000" d="M200.3052,-185.8393C210.652,-182.8102 223.2722,-179.1155 235.1132,-175.649"/>
<polygon fill="#000000" stroke="#000000" points="236.1955,-178.9791 244.8093,-172.8104 234.2287,-172.2611 236.1955,-178.9791"/>
<text text-anchor="middle" x="222.4579" y="-183.5335" font-family="Times,serif" font-size="14.00" fill="#000000">h</text>
</g>
<!-- ETHE -->
<g id="node17" class="node">
<title>ETHE</title>
<ellipse fill="none" stroke="#000000" cx="382.0329" cy="-164.3335" rx="35.9135" ry="35.9135"/>
<text text-anchor="middle" x="382.0329" y="-160.1335" font-family="Times,serif" font-size="14.00" fill="#000000">ETHE</text>
</g>
<!-- ETH&#45;&gt;ETHE -->
<g id="edge12" class="edge">
<title>ETH&#45;&gt;ETHE</title>
<path fill="none" stroke="#000000" d="M303.636,-164.3335C313.5968,-164.3335 324.9395,-164.3335 335.8427,-164.3335"/>
<polygon fill="#000000" stroke="#000000" points="336.1022,-167.8336 346.1022,-164.3335 336.1021,-160.8336 336.1022,-167.8336"/>
<text text-anchor="middle" x="324.6787" y="-168.5335" font-family="Times,serif" font-size="14.00" fill="#000000">e</text>
</g>
<!-- ETHR -->
<g id="node18" class="node">
<title>ETHR</title>
<ellipse fill="none" stroke="#000000" cx="382.0329" cy="-70.3335" rx="36.4955" ry="36.4955"/>
<text text-anchor="middle" x="382.0329" y="-66.1335" font-family="Times,serif" font-size="14.00" fill="#000000">ETHR</text>
</g>
<!-- ETH&#45;&gt;ETHR -->
<g id="edge15" class="edge">
<title>ETH&#45;&gt;ETHR</title>
<path fill="none" stroke="#000000" d="M296.4612,-144.628C310.9554,-132.0439 330.051,-115.4649 346.5255,-101.1615"/>
<polygon fill="#000000" stroke="#000000" points="349.1142,-103.5491 354.3707,-94.3502 344.525,-98.2633 349.1142,-103.5491"/>
<text text-anchor="middle" x="324.6787" y="-123.5335" font-family="Times,serif" font-size="14.00" fill="#000000">r</text>
</g>
<!-- ETHE&#45;&gt;ETHEN -->
<g id="edge13" class="edge">
<title>ETHE&#45;&gt;ETHEN</title>
<path fill="none" stroke="#000000" d="M417.7809,-164.3335C428.0243,-164.3335 439.4577,-164.3335 450.6507,-164.3335"/>
<polygon fill="#000000" stroke="#000000" points="450.8215,-167.8336 460.8214,-164.3335 450.8214,-160.8336 450.8215,-167.8336"/>
<text text-anchor="middle" x="439.7798" y="-168.5335" font-family="Times,serif" font-size="14.00" fill="#000000">n</text>
</g>
<!-- ETHRO -->
<g id="node19" class="node">
<title>ETHRO</title>
<ellipse fill="none" stroke="#000000" cx="507.9573" cy="-56.3335" rx="43.4377" ry="43.4377"/>
<text text-anchor="middle" x="507.9573" y="-52.1335" font-family="Times,serif" font-size="14.00" fill="#000000">ETHRO</text>
</g>
<!-- ETHR&#45;&gt;ETHRO -->
<g id="edge16" class="edge">
<title>ETHR&#45;&gt;ETHRO</title>
<path fill="none" stroke="#000000" d="M418.1178,-66.3216C429.4735,-65.0591 442.2652,-63.637 454.5588,-62.2702"/>
<polygon fill="#000000" stroke="#000000" points="455.1739,-65.7235 464.7259,-61.1398 454.4003,-58.7663 455.1739,-65.7235"/>
<text text-anchor="middle" x="439.7798" y="-68.5335" font-family="Times,serif" font-size="14.00" fill="#000000">o</text>
</g>
<!-- ETHRO&#45;&gt;ETHROW -->
<g id="edge17" class="edge">
<title>ETHRO&#45;&gt;ETHROW</title>
<path fill="none" stroke="#000000" d="M551.4891,-56.3335C563.7512,-56.3335 577.3761,-56.3335 590.6526,-56.3335"/>
<polygon fill="#000000" stroke="#000000" points="590.7091,-59.8336 600.709,-56.3335 590.709,-52.8336 590.7091,-59.8336"/>
<text text-anchor="middle" x="577.6881" y="-60.5335" font-family="Times,serif" font-size="14.00" fill="#000000">w</text>
</g>
</g>
</svg>
