<?xml version="1.0" encoding="UTF-8" standalone="no"?>
<!DOCTYPE svg PUBLIC "-//W3C//DTD SVG 1.1//EN"
 "http://www.w3.org/Graphics/SVG/1.1/DTD/svg11.dtd">
<!-- Generated by graphviz version 2.40.1 (20161225.0304)
 -->
<!-- Title: finite_state_machine Pages: 1 -->
<svg width="466pt" height="149pt"
 viewBox="0.00 0.00 465.72 149.04" xmlns="http://www.w3.org/2000/svg" xmlns:xlink="http://www.w3.org/1999/xlink">
<g id="graph0" class="graph" transform="scale(1 1) rotate(0) translate(4 145.0354)">
<title>finite_state_machine</title>
<polygon fill="#ffffff" stroke="transparent" points="-4,4 -4,-145.0354 461.7244,-145.0354 461.7244,4 -4,4"/>
<!-- init -->
<g id="node1" class="node">
<title>init</title>
<ellipse fill="#000000" stroke="#000000" cx="1.8" cy="-53.1177" rx="1.8" ry="1.8"/>
</g>
<!-- EINIT -->
<g id="node3" class="node">
<title>EINIT</title>
<ellipse fill="none" stroke="#ff0000" cx="76.8363" cy="-53.1177" rx="36.4742" ry="36.4742"/>
<text text-anchor="middle" x="76.8363" y="-48.9177" font-family="Times,serif" font-size="14.00" fill="#000000">EINIT</text>
</g>
<!-- init&#45;&gt;EINIT -->
<g id="edge1" class="edge">
<title>init&#45;&gt;EINIT</title>
<path fill="none" stroke="#000000" d="M3.6548,-53.1177C7.7806,-53.1177 18.2899,-53.1177 30.0983,-53.1177"/>
<polygon fill="#000000" stroke="#000000" points="30.2112,-56.6178 40.2111,-53.1177 30.2111,-49.6178 30.2112,-56.6178"/>
</g>
<!-- EOCTAL -->
<g id="node2" class="node">
<title>EOCTAL</title>
<ellipse fill="none" stroke="#000000" cx="209.1903" cy="-53.1177" rx="49.2268" ry="49.2268"/>
<ellipse fill="none" stroke="#000000" cx="209.1903" cy="-53.1177" rx="53.2357" ry="53.2357"/>
<text text-anchor="middle" x="209.1903" y="-48.9177" font-family="Times,serif" font-size="14.00" fill="#000000">EOCTAL</text>
</g>
<!-- EOCTAL&#45;&gt;EOCTAL -->
<g id="edge3" class="edge">
<title>EOCTAL&#45;&gt;EOCTAL</title>
<path fill="none" stroke="#000000" d="M196.453,-104.8981C197.6985,-116.1068 201.9442,-124.2354 209.1903,-124.2354 214.0588,-124.2354 217.5729,-120.566 219.7325,-114.7584"/>
<polygon fill="#000000" stroke="#000000" points="223.1709,-115.4197 221.9276,-104.8981 216.3382,-113.8986 223.1709,-115.4197"/>
<text text-anchor="middle" x="209.1903" y="-128.4354" font-family="Times,serif" font-size="14.00" fill="#000000">0&#45;7</text>
</g>
<!-- token LITOCT + val sem -->
<g id="node4" class="node">
<title>token LITOCT + val sem</title>
<polygon fill="none" stroke="#0000ff" points="457.9332,-71.1177 299.0993,-71.1177 299.0993,-35.1177 457.9332,-35.1177 457.9332,-71.1177"/>
<text text-anchor="middle" x="378.5162" y="-48.9177" font-family="Times,serif" font-size="14.00" fill="#000000">token LITOCT + val sem</text>
</g>
<!-- EOCTAL&#45;&gt;token LITOCT + val sem -->
<g id="edge4" class="edge">
<title>EOCTAL&#45;&gt;token LITOCT + val sem</title>
<path fill="none" stroke="#0000ff" d="M262.7661,-53.1177C271.2136,-53.1177 280.1406,-53.1177 289.1389,-53.1177"/>
<polygon fill="#0000ff" stroke="#0000ff" points="299.3067,-53.1177 289.3067,-57.6178 294.3067,-53.1178 289.3067,-53.1178 289.3067,-53.1178 289.3067,-53.1178 294.3067,-53.1178 289.3067,-48.6178 299.3067,-53.1177 299.3067,-53.1177"/>
</g>
<!-- EINIT&#45;&gt;EOCTAL -->
<g id="edge2" class="edge">
<title>EINIT&#45;&gt;EOCTAL</title>
<path fill="none" stroke="#000000" d="M113.353,-53.1177C123.4291,-53.1177 134.662,-53.1177 145.79,-53.1177"/>
<polygon fill="#000000" stroke="#000000" points="145.9439,-56.6178 155.9439,-53.1177 145.9438,-49.6178 145.9439,-56.6178"/>
<text text-anchor="middle" x="134.5726" y="-57.3177" font-family="Times,serif" font-size="14.00" fill="#000000">0</text>
</g>
</g>
</svg>
