<?xml version="1.0" encoding="UTF-8" standalone="no"?>
<!DOCTYPE svg PUBLIC "-//W3C//DTD SVG 1.1//EN"
 "http://www.w3.org/Graphics/SVG/1.1/DTD/svg11.dtd">
<!-- Generated by graphviz version 2.40.1 (20161225.0304)
 -->
<!-- Title: finite_state_machine Pages: 1 -->
<svg width="494pt" height="360pt"
 viewBox="0.00 0.00 494.15 360.00" xmlns="http://www.w3.org/2000/svg" xmlns:xlink="http://www.w3.org/1999/xlink">
<g id="graph0" class="graph" transform="scale(.4293 .4293) rotate(0) translate(4 834.486)">
<title>finite_state_machine</title>
<polygon fill="#ffffff" stroke="transparent" points="-4,4 -4,-834.486 1146.9385,-834.486 1146.9385,4 -4,4"/>
<!-- init -->
<g id="node1" class="node">
<title>init</title>
<ellipse fill="#000000" stroke="#000000" cx="1.8" cy="-520.486" rx="1.8" ry="1.8"/>
</g>
<!-- EINIT -->
<g id="node10" class="node">
<title>EINIT</title>
<ellipse fill="none" stroke="#ff0000" cx="76.8363" cy="-520.486" rx="36.4742" ry="36.4742"/>
<text text-anchor="middle" x="76.8363" y="-516.286" font-family="Times,serif" font-size="14.00" fill="#000000">EINIT</text>
</g>
<!-- init&#45;&gt;EINIT -->
<g id="edge1" class="edge">
<title>init&#45;&gt;EINIT</title>
<path fill="none" stroke="#000000" d="M3.6548,-520.486C7.7806,-520.486 18.2899,-520.486 30.0983,-520.486"/>
<polygon fill="#000000" stroke="#000000" points="30.2112,-523.9861 40.2111,-520.486 30.2111,-516.9861 30.2112,-523.9861"/>
</g>
<!-- EI -->
<g id="node2" class="node">
<title>EI</title>
<ellipse fill="none" stroke="#000000" cx="238.8829" cy="-728.486" rx="20.2773" ry="20.2773"/>
<ellipse fill="none" stroke="#000000" cx="238.8829" cy="-728.486" rx="24.3024" ry="24.3024"/>
<text text-anchor="middle" x="238.8829" y="-724.286" font-family="Times,serif" font-size="14.00" fill="#000000">EI</text>
</g>
<!-- EIF -->
<g id="node3" class="node">
<title>EIF</title>
<ellipse fill="none" stroke="#000000" cx="470.2985" cy="-786.486" rx="25.5355" ry="25.5355"/>
<ellipse fill="none" stroke="#000000" cx="470.2985" cy="-786.486" rx="29.5381" ry="29.5381"/>
<text text-anchor="middle" x="470.2985" y="-782.286" font-family="Times,serif" font-size="14.00" fill="#000000">EIF</text>
</g>
<!-- EI&#45;&gt;EIF -->
<g id="edge6" class="edge">
<title>EI&#45;&gt;EIF</title>
<path fill="none" stroke="#000000" d="M262.3458,-734.3665C302.1455,-744.3416 383.2643,-764.6725 431.5844,-776.783"/>
<polygon fill="#000000" stroke="#000000" points="430.8199,-780.1996 441.3708,-779.2358 432.5218,-773.4096 430.8199,-780.1996"/>
<text text-anchor="middle" x="345.5019" y="-764.686" font-family="Times,serif" font-size="14.00" fill="#000000">f</text>
</g>
<!-- EID -->
<g id="node5" class="node">
<title>EID</title>
<ellipse fill="none" stroke="#000000" cx="730.3931" cy="-711.486" rx="27.2289" ry="27.2289"/>
<ellipse fill="none" stroke="#000000" cx="730.3931" cy="-711.486" rx="31.2446" ry="31.2446"/>
<text text-anchor="middle" x="730.3931" y="-707.286" font-family="Times,serif" font-size="14.00" fill="#000000">EID</text>
</g>
<!-- EI&#45;&gt;EID -->
<g id="edge9" class="edge">
<title>EI&#45;&gt;EID</title>
<path fill="none" stroke="#000000" d="M263.257,-727.643C341.9395,-724.9216 589.7985,-716.3488 688.8749,-712.922"/>
<polygon fill="#000000" stroke="#000000" points="689.2241,-716.4121 699.0971,-712.5684 688.9821,-709.4163 689.2241,-716.4121"/>
<text text-anchor="middle" x="470.2985" y="-726.686" font-family="Times,serif" font-size="14.00" fill="#000000">a&#45;eg&#45;zA&#45;Z0&#45;9_</text>
</g>
<!-- EIF&#45;&gt;EID -->
<g id="edge7" class="edge">
<title>EIF&#45;&gt;EID</title>
<path fill="none" stroke="#000000" d="M499.1269,-778.1731C545.7226,-764.7369 637.6882,-738.2181 690.5271,-722.9816"/>
<polygon fill="#000000" stroke="#000000" points="691.5945,-726.3165 700.2332,-720.1828 689.6549,-719.5906 691.5945,-726.3165"/>
<text text-anchor="middle" x="600.1498" y="-761.686" font-family="Times,serif" font-size="14.00" fill="#000000">a&#45;zA&#45;Z0&#45;9_</text>
</g>
<!-- token IF -->
<g id="node12" class="node">
<title>token IF</title>
<polygon fill="none" stroke="#0000ff" points="761.9415,-830.486 698.8447,-830.486 698.8447,-794.486 761.9415,-794.486 761.9415,-830.486"/>
<text text-anchor="middle" x="730.3931" y="-808.286" font-family="Times,serif" font-size="14.00" fill="#000000">token IF</text>
</g>
<!-- EIF&#45;&gt;token IF -->
<g id="edge8" class="edge">
<title>EIF&#45;&gt;token IF</title>
<path fill="none" stroke="#0000ff" d="M499.8814,-789.4432C546.1911,-794.0725 635.9584,-803.046 688.7691,-808.3251"/>
<polygon fill="#0000ff" stroke="#0000ff" points="698.8146,-809.3293 688.4166,-812.8122 693.8394,-808.8319 688.8642,-808.3345 688.8642,-808.3345 688.8642,-808.3345 693.8394,-808.8319 689.3119,-803.8569 698.8146,-809.3293 698.8146,-809.3293"/>
</g>
<!-- ESEP -->
<g id="node4" class="node">
<title>ESEP</title>
<ellipse fill="none" stroke="#000000" cx="238.8829" cy="-576.486" rx="33.6364" ry="33.6364"/>
<ellipse fill="none" stroke="#000000" cx="238.8829" cy="-576.486" rx="37.644" ry="37.644"/>
<text text-anchor="middle" x="238.8829" y="-572.286" font-family="Times,serif" font-size="14.00" fill="#000000">ESEP</text>
</g>
<!-- ESEP&#45;&gt;ESEP -->
<g id="edge3" class="edge">
<title>ESEP&#45;&gt;ESEP</title>
<path fill="none" stroke="#000000" d="M221.6498,-610.1265C221.2792,-622.208 227.0236,-632.058 238.8829,-632.058 247.2216,-632.058 252.537,-627.1883 254.8293,-620.0972"/>
<polygon fill="#000000" stroke="#000000" points="258.3073,-620.4923 256.1161,-610.1265 251.3649,-619.5963 258.3073,-620.4923"/>
<text text-anchor="middle" x="238.8829" y="-636.258" font-family="Times,serif" font-size="14.00" fill="#000000">\t, ,\n</text>
</g>
<!-- token LITSEP -->
<g id="node11" class="node">
<title>token LITSEP</title>
<polygon fill="none" stroke="#0000ff" points="518.7885,-594.486 421.8084,-594.486 421.8084,-558.486 518.7885,-558.486 518.7885,-594.486"/>
<text text-anchor="middle" x="470.2985" y="-572.286" font-family="Times,serif" font-size="14.00" fill="#000000">token LITSEP</text>
</g>
<!-- ESEP&#45;&gt;token LITSEP -->
<g id="edge4" class="edge">
<title>ESEP&#45;&gt;token LITSEP</title>
<path fill="none" stroke="#0000ff" d="M276.5789,-576.486C313.1395,-576.486 369.1507,-576.486 411.5582,-576.486"/>
<polygon fill="#0000ff" stroke="#0000ff" points="421.752,-576.486 411.7521,-580.9861 416.752,-576.486 411.752,-576.4861 411.752,-576.4861 411.752,-576.4861 416.752,-576.486 411.752,-571.9861 421.752,-576.486 421.752,-576.486"/>
</g>
<!-- EID&#45;&gt;EID -->
<g id="edge11" class="edge">
<title>EID&#45;&gt;EID</title>
<path fill="none" stroke="#000000" d="M712.5127,-737.0122C710.1732,-749.5143 716.1333,-760.6081 730.3931,-760.6081 740.5309,-760.6081 746.4738,-755.0009 748.2218,-747.2669"/>
<polygon fill="#000000" stroke="#000000" points="751.7229,-747.0298 748.2735,-737.0122 744.723,-746.9944 751.7229,-747.0298"/>
<text text-anchor="middle" x="730.3931" y="-764.8081" font-family="Times,serif" font-size="14.00" fill="#000000">a&#45;zA&#45;Z0&#45;9_</text>
</g>
<!-- token LITID + val sem -->
<g id="node13" class="node">
<title>token LITID + val sem</title>
<polygon fill="none" stroke="#0000ff" points="994.7737,-729.486 849.3979,-729.486 849.3979,-693.486 994.7737,-693.486 994.7737,-729.486"/>
<text text-anchor="middle" x="922.0858" y="-707.286" font-family="Times,serif" font-size="14.00" fill="#000000">token LITID + val sem</text>
</g>
<!-- EID&#45;&gt;token LITID + val sem -->
<g id="edge10" class="edge">
<title>EID&#45;&gt;token LITID + val sem</title>
<path fill="none" stroke="#0000ff" d="M761.6185,-711.486C782.7835,-711.486 811.8178,-711.486 839.3755,-711.486"/>
<polygon fill="#0000ff" stroke="#0000ff" points="849.4442,-711.486 839.4442,-715.9861 844.4442,-711.486 839.4442,-711.4861 839.4442,-711.4861 839.4442,-711.4861 844.4442,-711.486 839.4441,-706.9861 849.4442,-711.486 849.4442,-711.486"/>
</g>
<!-- ECOM -->
<g id="node6" class="node">
<title>ECOM</title>
<ellipse fill="none" stroke="#000000" cx="730.3931" cy="-54.486" rx="38.8696" ry="38.8696"/>
<ellipse fill="none" stroke="#000000" cx="730.3931" cy="-54.486" rx="42.8632" ry="42.8632"/>
<text text-anchor="middle" x="730.3931" y="-50.286" font-family="Times,serif" font-size="14.00" fill="#000000">ECOM</text>
</g>
<!-- token LITCOM -->
<g id="node14" class="node">
<title>token LITCOM</title>
<polygon fill="none" stroke="#0000ff" points="974.3449,-72.486 869.8267,-72.486 869.8267,-36.486 974.3449,-36.486 974.3449,-72.486"/>
<text text-anchor="middle" x="922.0858" y="-50.286" font-family="Times,serif" font-size="14.00" fill="#000000">token LITCOM</text>
</g>
<!-- ECOM&#45;&gt;token LITCOM -->
<g id="edge16" class="edge">
<title>ECOM&#45;&gt;token LITCOM</title>
<path fill="none" stroke="#0000ff" d="M773.4127,-54.486C798.7772,-54.486 831.3198,-54.486 859.4887,-54.486"/>
<polygon fill="#0000ff" stroke="#0000ff" points="869.6475,-54.486 859.6475,-58.9861 864.6475,-54.486 859.6475,-54.4861 859.6475,-54.4861 859.6475,-54.4861 864.6475,-54.486 859.6474,-49.9861 869.6475,-54.486 869.6475,-54.486"/>
</g>
<!-- ECOM2 -->
<g id="node7" class="node">
<title>ECOM2</title>
<ellipse fill="none" stroke="#000000" cx="922.0858" cy="-221.486" rx="43.5413" ry="43.5413"/>
<ellipse fill="none" stroke="#000000" cx="922.0858" cy="-221.486" rx="47.5213" ry="47.5213"/>
<text text-anchor="middle" x="922.0858" y="-217.286" font-family="Times,serif" font-size="14.00" fill="#000000">ECOM2</text>
</g>
<!-- token LITCOM2 -->
<g id="node15" class="node">
<title>token LITCOM2</title>
<polygon fill="none" stroke="#0000ff" points="1143.0682,-239.486 1031.55,-239.486 1031.55,-203.486 1143.0682,-203.486 1143.0682,-239.486"/>
<text text-anchor="middle" x="1087.3091" y="-217.286" font-family="Times,serif" font-size="14.00" fill="#000000">token LITCOM2</text>
</g>
<!-- ECOM2&#45;&gt;token LITCOM2 -->
<g id="edge23" class="edge">
<title>ECOM2&#45;&gt;token LITCOM2</title>
<path fill="none" stroke="#0000ff" d="M969.8752,-221.486C985.9685,-221.486 1004.2199,-221.486 1021.4554,-221.486"/>
<polygon fill="#0000ff" stroke="#0000ff" points="1031.462,-221.486 1021.462,-225.9861 1026.462,-221.486 1021.462,-221.4861 1021.462,-221.4861 1021.462,-221.4861 1026.462,-221.486 1021.462,-216.9861 1031.462,-221.486 1031.462,-221.486"/>
</g>
<!-- ECHIFFRE -->
<g id="node8" class="node">
<title>ECHIFFRE</title>
<ellipse fill="none" stroke="#000000" cx="238.8829" cy="-426.486" rx="56.7682" ry="56.7682"/>
<ellipse fill="none" stroke="#000000" cx="238.8829" cy="-426.486" rx="60.7774" ry="60.7774"/>
<text text-anchor="middle" x="238.8829" y="-422.286" font-family="Times,serif" font-size="14.00" fill="#000000">ECHIFFRE</text>
</g>
<!-- ECHIFFRE&#45;&gt;ECHIFFRE -->
<g id="edge29" class="edge">
<title>ECHIFFRE&#45;&gt;ECHIFFRE</title>
<path fill="none" stroke="#000000" d="M222.3447,-485.1305C224.2061,-496.8018 229.7189,-505.1245 238.8829,-505.1245 245.1832,-505.1245 249.7577,-501.1908 252.6064,-494.9395"/>
<polygon fill="#000000" stroke="#000000" points="256.0271,-495.708 255.4212,-485.1305 249.2986,-493.7772 256.0271,-495.708"/>
<text text-anchor="middle" x="238.8829" y="-509.3245" font-family="Times,serif" font-size="14.00" fill="#000000">0&#45;9</text>
</g>
<!-- EFLOAT -->
<g id="node9" class="node">
<title>EFLOAT</title>
<ellipse fill="none" stroke="#000000" cx="470.2985" cy="-383.486" rx="48.0881" ry="48.0881"/>
<ellipse fill="none" stroke="#000000" cx="470.2985" cy="-383.486" rx="52.0916" ry="52.0916"/>
<text text-anchor="middle" x="470.2985" y="-379.286" font-family="Times,serif" font-size="14.00" fill="#000000">EFLOAT</text>
</g>
<!-- ECHIFFRE&#45;&gt;EFLOAT -->
<g id="edge30" class="edge">
<title>ECHIFFRE&#45;&gt;EFLOAT</title>
<path fill="none" stroke="#000000" d="M298.7791,-415.3565C332.6643,-409.0602 374.9468,-401.2036 409.0514,-394.8665"/>
<polygon fill="#000000" stroke="#000000" points="409.7038,-398.3053 418.8961,-393.0372 408.425,-391.4231 409.7038,-398.3053"/>
<text text-anchor="middle" x="345.5019" y="-414.686" font-family="Times,serif" font-size="14.00" fill="#000000">.</text>
</g>
<!-- token LITENT + val sem -->
<g id="node17" class="node">
<title>token LITENT + val sem</title>
<polygon fill="none" stroke="#0000ff" points="548.9313,-523.486 391.6656,-523.486 391.6656,-487.486 548.9313,-487.486 548.9313,-523.486"/>
<text text-anchor="middle" x="470.2985" y="-501.286" font-family="Times,serif" font-size="14.00" fill="#000000">token LITENT + val sem</text>
</g>
<!-- ECHIFFRE&#45;&gt;token LITENT + val sem -->
<g id="edge31" class="edge">
<title>ECHIFFRE&#45;&gt;token LITENT + val sem</title>
<path fill="none" stroke="#0000ff" d="M296.3841,-446.1156C330.277,-457.6859 373.1795,-472.3318 407.892,-484.1819"/>
<polygon fill="#0000ff" stroke="#0000ff" points="417.4513,-487.4452 406.5337,-488.4731 412.7194,-485.8298 407.9875,-484.2144 407.9875,-484.2144 407.9875,-484.2144 412.7194,-485.8298 409.4414,-479.9557 417.4513,-487.4452 417.4513,-487.4452"/>
</g>
<!-- EFLOAT&#45;&gt;EFLOAT -->
<g id="edge26" class="edge">
<title>EFLOAT&#45;&gt;EFLOAT</title>
<path fill="none" stroke="#000000" d="M447.1634,-430.2965C448.1766,-443.4415 455.8883,-453.5318 470.2985,-453.5318 480.7684,-453.5318 487.7022,-448.2052 491.0999,-440.2505"/>
<polygon fill="#000000" stroke="#000000" points="494.5585,-440.8314 493.4335,-430.2965 487.7433,-439.2336 494.5585,-440.8314"/>
<text text-anchor="middle" x="470.2985" y="-457.7318" font-family="Times,serif" font-size="14.00" fill="#000000">0&#45;9</text>
</g>
<!-- token LITDEC + val sem -->
<g id="node16" class="node">
<title>token LITDEC + val sem</title>
<polygon fill="none" stroke="#0000ff" points="809.81,-401.486 650.9761,-401.486 650.9761,-365.486 809.81,-365.486 809.81,-401.486"/>
<text text-anchor="middle" x="730.3931" y="-379.286" font-family="Times,serif" font-size="14.00" fill="#000000">token LITDEC + val sem</text>
</g>
<!-- EFLOAT&#45;&gt;token LITDEC + val sem -->
<g id="edge27" class="edge">
<title>EFLOAT&#45;&gt;token LITDEC + val sem</title>
<path fill="none" stroke="#0000ff" d="M522.6196,-383.486C556.4628,-383.486 601.3988,-383.486 640.8225,-383.486"/>
<polygon fill="#0000ff" stroke="#0000ff" points="650.9816,-383.486 640.9816,-387.9861 645.9816,-383.486 640.9816,-383.4861 640.9816,-383.4861 640.9816,-383.4861 645.9816,-383.486 640.9815,-378.9861 650.9816,-383.486 650.9816,-383.486"/>
</g>
<!-- EINIT&#45;&gt;EI -->
<g id="edge5" class="edge">
<title>EINIT&#45;&gt;EI</title>
<path fill="none" stroke="#000000" d="M84.2728,-556.0636C94.0977,-599.9701 112.3569,-671.1994 131.0726,-690.486 150.4555,-710.4602 180.9576,-719.954 204.5787,-724.4556"/>
<polygon fill="#000000" stroke="#000000" points="204.1109,-727.9262 214.5547,-726.144 205.279,-721.0243 204.1109,-727.9262"/>
<text text-anchor="middle" x="145.6585" y="-713.686" font-family="Times,serif" font-size="14.00" fill="#000000">i</text>
</g>
<!-- EINIT&#45;&gt;ESEP -->
<g id="edge2" class="edge">
<title>EINIT&#45;&gt;ESEP</title>
<path fill="none" stroke="#000000" d="M111.2022,-532.3622C135.175,-540.6466 167.4141,-551.7878 193.4987,-560.8021"/>
<polygon fill="#000000" stroke="#000000" points="192.5697,-564.1841 203.1644,-564.1424 194.8561,-557.568 192.5697,-564.1841"/>
<text text-anchor="middle" x="145.6585" y="-552.686" font-family="Times,serif" font-size="14.00" fill="#000000">\t, ,\n</text>
</g>
<!-- EINIT&#45;&gt;EID -->
<g id="edge32" class="edge">
<title>EINIT&#45;&gt;EID</title>
<path fill="none" stroke="#000000" d="M91.3928,-553.6821C107.5541,-586.1655 136.9228,-634.0708 178.2444,-657.486 222.3729,-682.4917 567.7066,-702.9069 688.692,-709.3561"/>
<polygon fill="#000000" stroke="#000000" points="688.8482,-712.8692 699.0189,-709.9016 689.2175,-705.8789 688.8482,-712.8692"/>
<text text-anchor="middle" x="345.5019" y="-691.686" font-family="Times,serif" font-size="14.00" fill="#000000">a&#45;hj&#45;zA&#45;Z</text>
</g>
<!-- EINIT&#45;&gt;ECHIFFRE -->
<g id="edge28" class="edge">
<title>EINIT&#45;&gt;ECHIFFRE</title>
<path fill="none" stroke="#000000" d="M108.4652,-502.1387C128.0666,-490.7683 153.905,-475.78 177.409,-462.1458"/>
<polygon fill="#000000" stroke="#000000" points="179.3912,-465.0422 186.285,-456.997 175.8788,-458.9872 179.3912,-465.0422"/>
<text text-anchor="middle" x="145.6585" y="-490.686" font-family="Times,serif" font-size="14.00" fill="#000000">0&#45;9</text>
</g>
<!-- ESLASH -->
<g id="node18" class="node">
<title>ESLASH</title>
<ellipse fill="none" stroke="#000000" cx="238.8829" cy="-220.486" rx="47.5293" ry="47.5293"/>
<text text-anchor="middle" x="238.8829" y="-216.286" font-family="Times,serif" font-size="14.00" fill="#000000">ESLASH</text>
</g>
<!-- EINIT&#45;&gt;ESLASH -->
<g id="edge12" class="edge">
<title>EINIT&#45;&gt;ESLASH</title>
<path fill="none" stroke="#000000" d="M84.4944,-484.8267C92.8636,-450.002 108.2055,-396.1895 131.0726,-353.686 147.012,-324.0591 157.0997,-320.6531 178.2444,-294.486 185.9108,-284.9986 194.1688,-274.8649 202.0481,-265.2363"/>
<polygon fill="#000000" stroke="#000000" points="204.9263,-267.246 208.5564,-257.2924 199.5115,-262.8098 204.9263,-267.246"/>
<text text-anchor="middle" x="145.6585" y="-357.686" font-family="Times,serif" font-size="14.00" fill="#000000">/</text>
</g>
<!-- EP -->
<g id="node22" class="node">
<title>EP</title>
<ellipse fill="none" stroke="#000000" cx="238.8829" cy="-325.486" rx="22.1102" ry="22.1102"/>
<text text-anchor="middle" x="238.8829" y="-321.286" font-family="Times,serif" font-size="14.00" fill="#000000">EP</text>
</g>
<!-- EINIT&#45;&gt;EP -->
<g id="edge24" class="edge">
<title>EINIT&#45;&gt;EP</title>
<path fill="none" stroke="#000000" d="M90.9236,-486.9147C107.4303,-450.8849 137.7572,-393.8119 178.2444,-356.486 186.9631,-348.448 198.1579,-341.95 208.5502,-337.0191"/>
<polygon fill="#000000" stroke="#000000" points="210.0496,-340.183 217.7745,-332.932 207.2139,-333.783 210.0496,-340.183"/>
<text text-anchor="middle" x="145.6585" y="-416.686" font-family="Times,serif" font-size="14.00" fill="#000000">.</text>
</g>
<!-- EDSLASH -->
<g id="node19" class="node">
<title>EDSLASH</title>
<ellipse fill="none" stroke="#000000" cx="470.2985" cy="-54.486" rx="54.472" ry="54.472"/>
<text text-anchor="middle" x="470.2985" y="-50.286" font-family="Times,serif" font-size="14.00" fill="#000000">EDSLASH</text>
</g>
<!-- ESLASH&#45;&gt;EDSLASH -->
<g id="edge13" class="edge">
<title>ESLASH&#45;&gt;EDSLASH</title>
<path fill="none" stroke="#000000" d="M277.6167,-192.7013C315.976,-165.1852 374.9917,-122.8519 417.6028,-92.2859"/>
<polygon fill="#000000" stroke="#000000" points="419.8097,-95.0102 425.8953,-86.3375 415.7296,-89.3222 419.8097,-95.0102"/>
<text text-anchor="middle" x="345.5019" y="-166.686" font-family="Times,serif" font-size="14.00" fill="#000000">/</text>
</g>
<!-- ESLASHET -->
<g id="node20" class="node">
<title>ESLASHET</title>
<ellipse fill="none" stroke="#000000" cx="470.2985" cy="-220.486" rx="59.1276" ry="59.1276"/>
<text text-anchor="middle" x="470.2985" y="-216.286" font-family="Times,serif" font-size="14.00" fill="#000000">ESLASHET</text>
</g>
<!-- ESLASH&#45;&gt;ESLASHET -->
<g id="edge17" class="edge">
<title>ESLASH&#45;&gt;ESLASHET</title>
<path fill="none" stroke="#000000" d="M286.5518,-220.486C319.4479,-220.486 363.7237,-220.486 400.5702,-220.486"/>
<polygon fill="#000000" stroke="#000000" points="400.7502,-223.9861 410.7502,-220.486 400.7502,-216.9861 400.7502,-223.9861"/>
<text text-anchor="middle" x="345.5019" y="-224.686" font-family="Times,serif" font-size="14.00" fill="#000000">*</text>
</g>
<!-- EDSLASH&#45;&gt;ECOM -->
<g id="edge15" class="edge">
<title>EDSLASH&#45;&gt;ECOM</title>
<path fill="none" stroke="#000000" d="M524.8228,-54.486C569.5984,-54.486 632.653,-54.486 677.0915,-54.486"/>
<polygon fill="#000000" stroke="#000000" points="677.1198,-57.9861 687.1198,-54.486 677.1198,-50.9861 677.1198,-57.9861"/>
<text text-anchor="middle" x="600.1498" y="-58.686" font-family="Times,serif" font-size="14.00" fill="#000000">\n</text>
</g>
<!-- EDSLASH&#45;&gt;EDSLASH -->
<g id="edge14" class="edge">
<title>EDSLASH&#45;&gt;EDSLASH</title>
<path fill="none" stroke="#000000" d="M447.2528,-103.9499C448.5697,-117.05 456.2516,-126.972 470.2985,-126.972 480.5044,-126.972 487.3503,-121.7342 490.8362,-113.8453"/>
<polygon fill="#000000" stroke="#000000" points="494.28,-114.5033 493.3441,-103.9499 487.4945,-112.7835 494.28,-114.5033"/>
<text text-anchor="middle" x="470.2985" y="-131.172" font-family="Times,serif" font-size="14.00" fill="#000000">all\{\n}</text>
</g>
<!-- ESLASHET&#45;&gt;ESLASHET -->
<g id="edge18" class="edge">
<title>ESLASHET&#45;&gt;ESLASHET</title>
<path fill="none" stroke="#000000" d="M447.5083,-275.3841C449.3814,-288.2832 456.9782,-297.7995 470.2985,-297.7995 479.8724,-297.7995 486.4896,-292.8834 490.15,-285.3285"/>
<polygon fill="#000000" stroke="#000000" points="493.6111,-285.966 493.0887,-275.3841 486.8981,-283.9822 493.6111,-285.966"/>
<text text-anchor="middle" x="470.2985" y="-301.9995" font-family="Times,serif" font-size="14.00" fill="#000000">all\{*}</text>
</g>
<!-- ESLASHDET -->
<g id="node21" class="node">
<title>ESLASHDET</title>
<ellipse fill="none" stroke="#000000" cx="730.3931" cy="-221.486" rx="66.0704" ry="66.0704"/>
<text text-anchor="middle" x="730.3931" y="-217.286" font-family="Times,serif" font-size="14.00" fill="#000000">ESLASHDET</text>
</g>
<!-- ESLASHET&#45;&gt;ESLASHDET -->
<g id="edge19" class="edge">
<title>ESLASHET&#45;&gt;ESLASHDET</title>
<path fill="none" stroke="#000000" d="M529.6434,-220.7142C566.4692,-220.8558 614.1622,-221.0391 653.8209,-221.1916"/>
<polygon fill="#000000" stroke="#000000" points="653.9692,-224.6921 663.9826,-221.2307 653.9961,-217.6921 653.9692,-224.6921"/>
<text text-anchor="middle" x="600.1498" y="-225.686" font-family="Times,serif" font-size="14.00" fill="#000000">*</text>
</g>
<!-- ESLASHDET&#45;&gt;ECOM2 -->
<g id="edge22" class="edge">
<title>ESLASHDET&#45;&gt;ECOM2</title>
<path fill="none" stroke="#000000" d="M796.8999,-221.486C818.7382,-221.486 842.8255,-221.486 863.9899,-221.486"/>
<polygon fill="#000000" stroke="#000000" points="864.1223,-224.9861 874.1222,-221.486 864.1222,-217.9861 864.1223,-224.9861"/>
<text text-anchor="middle" x="829.5466" y="-225.686" font-family="Times,serif" font-size="14.00" fill="#000000">/</text>
</g>
<!-- ESLASHDET&#45;&gt;ESLASHET -->
<g id="edge20" class="edge">
<title>ESLASHDET&#45;&gt;ESLASHET</title>
<path fill="none" stroke="#000000" d="M665.8608,-205.6945C655.0141,-203.6121 643.8257,-201.8117 633.1849,-200.686 603.9833,-197.5968 596.33,-197.7292 567.1147,-200.686 557.6767,-201.6412 547.7991,-203.1075 538.1121,-204.8195"/>
<polygon fill="#000000" stroke="#000000" points="537.303,-201.4099 528.1127,-206.6814 538.5845,-208.2916 537.303,-201.4099"/>
<text text-anchor="middle" x="600.1498" y="-205.686" font-family="Times,serif" font-size="14.00" fill="#000000">all\{//, *}</text>
</g>
<!-- ESLASHDET&#45;&gt;ESLASHDET -->
<g id="edge21" class="edge">
<title>ESLASHDET&#45;&gt;ESLASHDET</title>
<path fill="none" stroke="#000000" d="M713.0274,-285.7961C715.2256,-297.5365 721.0142,-305.7709 730.3931,-305.7709 736.8411,-305.7709 741.5921,-301.8788 744.646,-295.6312"/>
<polygon fill="#000000" stroke="#000000" points="748.0782,-296.3861 747.7587,-285.7961 741.4044,-294.2739 748.0782,-296.3861"/>
<text text-anchor="middle" x="730.3931" y="-309.9709" font-family="Times,serif" font-size="14.00" fill="#000000">*</text>
</g>
<!-- EP&#45;&gt;EFLOAT -->
<g id="edge25" class="edge">
<title>EP&#45;&gt;EFLOAT</title>
<path fill="none" stroke="#000000" d="M260.654,-330.9425C294.4434,-339.4112 360.7197,-356.0221 409.7482,-368.3102"/>
<polygon fill="#000000" stroke="#000000" points="409.0686,-371.7481 419.6195,-370.7843 410.7705,-364.9581 409.0686,-371.7481"/>
<text text-anchor="middle" x="345.5019" y="-361.686" font-family="Times,serif" font-size="14.00" fill="#000000">0&#45;9</text>
</g>
</g>
</svg>
