<?xml version="1.0" encoding="UTF-8" standalone="no"?>
<!DOCTYPE svg PUBLIC "-//W3C//DTD SVG 1.1//EN"
 "http://www.w3.org/Graphics/SVG/1.1/DTD/svg11.dtd">
<!-- Generated by graphviz version 2.40.1 (20161225.0304)
 -->
<!-- Title: finite_state_machine Pages: 1 -->
<svg width="576pt" height="117pt"
 viewBox="0.00 0.00 576.00 117.13" xmlns="http://www.w3.org/2000/svg" xmlns:xlink="http://www.w3.org/1999/xlink">
<g id="graph0" class="graph" transform="scale(.847 .847) rotate(0) translate(4 134.2988)">
<title>finite_state_machine</title>
<polygon fill="#ffffff" stroke="transparent" points="-4,4 -4,-134.2988 676.0752,-134.2988 676.0752,4 -4,4"/>
<!-- init -->
<g id="node1" class="node">
<title>init</title>
<ellipse fill="#000000" stroke="#000000" cx="1.8" cy="-47.7494" rx="1.8" ry="1.8"/>
</g>
<!-- EINIT -->
<g id="node3" class="node">
<title>EINIT</title>
<ellipse fill="none" stroke="#ff0000" cx="76.8363" cy="-47.7494" rx="36.4742" ry="36.4742"/>
<text text-anchor="middle" x="76.8363" y="-43.5494" font-family="Times,serif" font-size="14.00" fill="#000000">EINIT</text>
</g>
<!-- init&#45;&gt;EINIT -->
<g id="edge1" class="edge">
<title>init&#45;&gt;EINIT</title>
<path fill="none" stroke="#000000" d="M3.6548,-47.7494C7.7806,-47.7494 18.2899,-47.7494 30.0983,-47.7494"/>
<polygon fill="#000000" stroke="#000000" points="30.2112,-51.2495 40.2111,-47.7494 30.2111,-44.2495 30.2112,-51.2495"/>
</g>
<!-- EHEXA -->
<g id="node2" class="node">
<title>EHEXA</title>
<ellipse fill="none" stroke="#000000" cx="428.1393" cy="-47.7494" rx="43.9791" ry="43.9791"/>
<ellipse fill="none" stroke="#000000" cx="428.1393" cy="-47.7494" rx="48.0001" ry="48.0001"/>
<text text-anchor="middle" x="428.1393" y="-43.5494" font-family="Times,serif" font-size="14.00" fill="#000000">EHEXA</text>
</g>
<!-- EHEXA&#45;&gt;EHEXA -->
<g id="edge5" class="edge">
<title>EHEXA&#45;&gt;EHEXA</title>
<path fill="none" stroke="#000000" d="M415.9826,-94.1363C416.9328,-105.2581 420.985,-113.4988 428.1393,-113.4988 432.9461,-113.4988 436.3526,-109.7788 438.3588,-103.9644"/>
<polygon fill="#000000" stroke="#000000" points="441.7959,-104.6244 440.2961,-94.1363 434.9281,-103.2706 441.7959,-104.6244"/>
<text text-anchor="middle" x="428.1393" y="-117.6988" font-family="Times,serif" font-size="14.00" fill="#000000">0&#45;9A&#45;F</text>
</g>
<!-- token LITHEX + val sem -->
<g id="node4" class="node">
<title>token LITHEX + val sem</title>
<polygon fill="none" stroke="#0000ff" points="672.1685,-65.7494 512.7954,-65.7494 512.7954,-29.7494 672.1685,-29.7494 672.1685,-65.7494"/>
<text text-anchor="middle" x="592.482" y="-43.5494" font-family="Times,serif" font-size="14.00" fill="#000000">token LITHEX + val sem</text>
</g>
<!-- EHEXA&#45;&gt;token LITHEX + val sem -->
<g id="edge6" class="edge">
<title>EHEXA&#45;&gt;token LITHEX + val sem</title>
<path fill="none" stroke="#0000ff" d="M476.1158,-47.7494C484.445,-47.7494 493.3447,-47.7494 502.3734,-47.7494"/>
<polygon fill="#0000ff" stroke="#0000ff" points="512.5983,-47.7494 502.5984,-52.2495 507.5983,-47.7495 502.5983,-47.7495 502.5983,-47.7495 502.5983,-47.7495 507.5983,-47.7495 502.5983,-43.2495 512.5983,-47.7494 512.5983,-47.7494"/>
</g>
<!-- E0 -->
<g id="node5" class="node">
<title>E0</title>
<ellipse fill="none" stroke="#000000" cx="177.837" cy="-47.7494" rx="21.5313" ry="21.5313"/>
<text text-anchor="middle" x="177.837" y="-43.5494" font-family="Times,serif" font-size="14.00" fill="#000000">E0</text>
</g>
<!-- EINIT&#45;&gt;E0 -->
<g id="edge2" class="edge">
<title>EINIT&#45;&gt;E0</title>
<path fill="none" stroke="#000000" d="M113.2999,-47.7494C123.868,-47.7494 135.3271,-47.7494 145.6159,-47.7494"/>
<polygon fill="#000000" stroke="#000000" points="145.828,-51.2495 155.828,-47.7494 145.8279,-44.2495 145.828,-51.2495"/>
<text text-anchor="middle" x="134.5726" y="-51.9494" font-family="Times,serif" font-size="14.00" fill="#000000">0</text>
</g>
<!-- E0X -->
<g id="node6" class="node">
<title>E0X</title>
<ellipse fill="none" stroke="#000000" cx="274.4438" cy="-47.7494" rx="28.9735" ry="28.9735"/>
<text text-anchor="middle" x="274.4438" y="-43.5494" font-family="Times,serif" font-size="14.00" fill="#000000">E0X</text>
</g>
<!-- E0&#45;&gt;E0X -->
<g id="edge3" class="edge">
<title>E0&#45;&gt;E0X</title>
<path fill="none" stroke="#000000" d="M199.7586,-47.7494C210.2646,-47.7494 223.1724,-47.7494 235.2842,-47.7494"/>
<polygon fill="#000000" stroke="#000000" points="235.6426,-51.2495 245.6425,-47.7494 235.6425,-44.2495 235.6426,-51.2495"/>
<text text-anchor="middle" x="222.6547" y="-51.9494" font-family="Times,serif" font-size="14.00" fill="#000000">X</text>
</g>
<!-- E0X&#45;&gt;EHEXA -->
<g id="edge4" class="edge">
<title>E0X&#45;&gt;EHEXA</title>
<path fill="none" stroke="#000000" d="M303.3527,-47.7494C322.1293,-47.7494 347.2632,-47.7494 370.0525,-47.7494"/>
<polygon fill="#000000" stroke="#000000" points="370.327,-51.2495 380.327,-47.7494 370.3269,-44.2495 370.327,-51.2495"/>
<text text-anchor="middle" x="341.7847" y="-51.9494" font-family="Times,serif" font-size="14.00" fill="#000000">0&#45;9A&#45;F</text>
</g>
</g>
</svg>
