<?xml version="1.0" encoding="UTF-8" standalone="no"?>
<!DOCTYPE svg PUBLIC "-//W3C//DTD SVG 1.1//EN"
 "http://www.w3.org/Graphics/SVG/1.1/DTD/svg11.dtd">
<!-- Generated by graphviz version 2.40.1 (20161225.0304)
 -->
<!-- Title: finite_state_machine Pages: 1 -->
<svg width="442pt" height="110pt"
 viewBox="0.00 0.00 441.91 110.16" xmlns="http://www.w3.org/2000/svg" xmlns:xlink="http://www.w3.org/1999/xlink">
<g id="graph0" class="graph" transform="scale(1 1) rotate(0) translate(4 106.1584)">
<title>finite_state_machine</title>
<polygon fill="#ffffff" stroke="transparent" points="-4,4 -4,-106.1584 437.9142,-106.1584 437.9142,4 -4,4"/>
<!-- init -->
<g id="node1" class="node">
<title>init</title>
<ellipse fill="#000000" stroke="#000000" cx="1.8" cy="-36.2363" rx="1.8" ry="1.8"/>
</g>
<!-- EINIT -->
<g id="node3" class="node">
<title>EINIT</title>
<ellipse fill="none" stroke="#ff0000" cx="76.8363" cy="-36.2363" rx="36.4742" ry="36.4742"/>
<text text-anchor="middle" x="76.8363" y="-32.0363" font-family="Times,serif" font-size="14.00" fill="#000000">EINIT</text>
</g>
<!-- init&#45;&gt;EINIT -->
<g id="edge1" class="edge">
<title>init&#45;&gt;EINIT</title>
<path fill="none" stroke="#000000" d="M3.6548,-36.2363C7.7806,-36.2363 18.2899,-36.2363 30.0983,-36.2363"/>
<polygon fill="#000000" stroke="#000000" points="30.2112,-39.7364 40.2111,-36.2363 30.2111,-32.7364 30.2112,-39.7364"/>
</g>
<!-- EID -->
<g id="node2" class="node">
<title>EID</title>
<ellipse fill="none" stroke="#000000" cx="220.6043" cy="-36.2363" rx="27.2289" ry="27.2289"/>
<ellipse fill="none" stroke="#000000" cx="220.6043" cy="-36.2363" rx="31.2446" ry="31.2446"/>
<text text-anchor="middle" x="220.6043" y="-32.0363" font-family="Times,serif" font-size="14.00" fill="#000000">EID</text>
</g>
<!-- EID&#45;&gt;EID -->
<g id="edge3" class="edge">
<title>EID&#45;&gt;EID</title>
<path fill="none" stroke="#000000" d="M211.6065,-66.4564C211.5113,-76.9135 214.5105,-85.3584 220.6043,-85.3584 224.5081,-85.3584 227.1419,-81.8926 228.5058,-76.6523"/>
<polygon fill="#000000" stroke="#000000" points="232.0129,-76.7733 229.6021,-66.4564 225.053,-76.0249 232.0129,-76.7733"/>
<text text-anchor="middle" x="220.6043" y="-89.5584" font-family="Times,serif" font-size="14.00" fill="#000000">a&#45;zA&#45;Z0&#45;9_</text>
</g>
<!-- token LITID + val sem -->
<g id="node4" class="node">
<title>token LITID + val sem</title>
<polygon fill="none" stroke="#0000ff" points="434.0082,-54.2363 288.6323,-54.2363 288.6323,-18.2363 434.0082,-18.2363 434.0082,-54.2363"/>
<text text-anchor="middle" x="361.3203" y="-32.0363" font-family="Times,serif" font-size="14.00" fill="#000000">token LITID + val sem</text>
</g>
<!-- EID&#45;&gt;token LITID + val sem -->
<g id="edge4" class="edge">
<title>EID&#45;&gt;token LITID + val sem</title>
<path fill="none" stroke="#0000ff" d="M251.8337,-36.2363C259.9205,-36.2363 269.0185,-36.2363 278.4254,-36.2363"/>
<polygon fill="#0000ff" stroke="#0000ff" points="288.721,-36.2363 278.721,-40.7364 283.721,-36.2364 278.721,-36.2364 278.721,-36.2364 278.721,-36.2364 283.721,-36.2364 278.7209,-31.7364 288.721,-36.2363 288.721,-36.2363"/>
</g>
<!-- EINIT&#45;&gt;EID -->
<g id="edge2" class="edge">
<title>EINIT&#45;&gt;EID</title>
<path fill="none" stroke="#000000" d="M113.115,-36.2363C133.1825,-36.2363 158.2027,-36.2363 179.0533,-36.2363"/>
<polygon fill="#000000" stroke="#000000" points="179.2204,-39.7364 189.2204,-36.2363 179.2203,-32.7364 179.2204,-39.7364"/>
<text text-anchor="middle" x="151.2774" y="-40.4363" font-family="Times,serif" font-size="14.00" fill="#000000">a&#45;zA&#45;Z</text>
</g>
</g>
</svg>
