<?xml version="1.0" encoding="UTF-8" standalone="no"?>
<!DOCTYPE svg PUBLIC "-//W3C//DTD SVG 1.1//EN"
 "http://www.w3.org/Graphics/SVG/1.1/DTD/svg11.dtd">
<!-- Generated by graphviz version 2.40.1 (20161225.0304)
 -->
<!-- Title: finite_state_machine Pages: 1 -->
<svg width="484pt" height="228pt"
 viewBox="0.00 0.00 483.54 227.70" xmlns="http://www.w3.org/2000/svg" xmlns:xlink="http://www.w3.org/1999/xlink">
<g id="graph0" class="graph" transform="scale(1 1) rotate(0) translate(4 223.699)">
<title>finite_state_machine</title>
<polygon fill="#ffffff" stroke="transparent" points="-4,4 -4,-223.699 479.5418,-223.699 479.5418,4 -4,4"/>
<!-- init -->
<g id="node1" class="node">
<title>init</title>
<ellipse fill="#000000" stroke="#000000" cx="1.8" cy="-105.0215" rx="1.8" ry="1.8"/>
</g>
<!-- EINIT -->
<g id="node4" class="node">
<title>EINIT</title>
<ellipse fill="none" stroke="#ff0000" cx="76.8363" cy="-105.0215" rx="36.4742" ry="36.4742"/>
<text text-anchor="middle" x="76.8363" y="-100.8215" font-family="Times,serif" font-size="14.00" fill="#000000">EINIT</text>
</g>
<!-- init&#45;&gt;EINIT -->
<g id="edge1" class="edge">
<title>init&#45;&gt;EINIT</title>
<path fill="none" stroke="#000000" d="M3.6548,-105.0215C7.7806,-105.0215 18.2899,-105.0215 30.0983,-105.0215"/>
<polygon fill="#000000" stroke="#000000" points="30.2112,-108.5216 40.2111,-105.0215 30.2111,-101.5216 30.2112,-108.5216"/>
</g>
<!-- ENULL -->
<g id="node2" class="node">
<title>ENULL</title>
<ellipse fill="none" stroke="#000000" cx="214.4107" cy="-173.0215" rx="42.8404" ry="42.8404"/>
<ellipse fill="none" stroke="#000000" cx="214.4107" cy="-173.0215" rx="46.8557" ry="46.8557"/>
<text text-anchor="middle" x="214.4107" y="-168.8215" font-family="Times,serif" font-size="14.00" fill="#000000">ENULL</text>
</g>
<!-- token LITENT + val sem (0) -->
<g id="node5" class="node">
<title>token LITENT + val sem (0)</title>
<polygon fill="none" stroke="#0000ff" points="475.7692,-191.0215 297.8608,-191.0215 297.8608,-155.0215 475.7692,-155.0215 475.7692,-191.0215"/>
<text text-anchor="middle" x="386.815" y="-168.8215" font-family="Times,serif" font-size="14.00" fill="#000000">token LITENT + val sem (0)</text>
</g>
<!-- ENULL&#45;&gt;token LITENT + val sem (0) -->
<g id="edge3" class="edge">
<title>ENULL&#45;&gt;token LITENT + val sem (0)</title>
<path fill="none" stroke="#0000ff" d="M261.5209,-173.0215C269.7788,-173.0215 278.6439,-173.0215 287.7036,-173.0215"/>
<polygon fill="#0000ff" stroke="#0000ff" points="297.993,-173.0215 287.9931,-177.5216 292.993,-173.0216 287.993,-173.0216 287.993,-173.0216 287.993,-173.0216 292.993,-173.0216 287.993,-168.5216 297.993,-173.0215 297.993,-173.0215"/>
</g>
<!-- EINT -->
<g id="node3" class="node">
<title>EINT</title>
<ellipse fill="none" stroke="#000000" cx="214.4107" cy="-37.0215" rx="33.0407" ry="33.0407"/>
<ellipse fill="none" stroke="#000000" cx="214.4107" cy="-37.0215" rx="37.043" ry="37.043"/>
<text text-anchor="middle" x="214.4107" y="-32.8215" font-family="Times,serif" font-size="14.00" fill="#000000">EINT</text>
</g>
<!-- EINT&#45;&gt;EINT -->
<g id="edge5" class="edge">
<title>EINT&#45;&gt;EINT</title>
<path fill="none" stroke="#000000" d="M202.4173,-72.2121C202.6004,-83.2976 206.5982,-92.043 214.4107,-92.043 219.6597,-92.043 223.1867,-88.0952 224.9917,-82.1422"/>
<polygon fill="#000000" stroke="#000000" points="228.461,-82.6053 226.4041,-72.2121 221.5308,-81.6195 228.461,-82.6053"/>
<text text-anchor="middle" x="214.4107" y="-96.243" font-family="Times,serif" font-size="14.00" fill="#000000">0&#45;9</text>
</g>
<!-- token LITENT + val sem -->
<g id="node6" class="node">
<title>token LITENT + val sem</title>
<polygon fill="none" stroke="#0000ff" points="465.4478,-55.0215 308.1822,-55.0215 308.1822,-19.0215 465.4478,-19.0215 465.4478,-55.0215"/>
<text text-anchor="middle" x="386.815" y="-32.8215" font-family="Times,serif" font-size="14.00" fill="#000000">token LITENT + val sem</text>
</g>
<!-- EINT&#45;&gt;token LITENT + val sem -->
<g id="edge6" class="edge">
<title>EINT&#45;&gt;token LITENT + val sem</title>
<path fill="none" stroke="#0000ff" d="M251.8199,-37.0215C265.516,-37.0215 281.6624,-37.0215 297.9361,-37.0215"/>
<polygon fill="#0000ff" stroke="#0000ff" points="308.0645,-37.0215 298.0646,-41.5216 303.0645,-37.0216 298.0645,-37.0216 298.0645,-37.0216 298.0645,-37.0216 303.0645,-37.0216 298.0645,-32.5216 308.0645,-37.0215 308.0645,-37.0215"/>
</g>
<!-- EINIT&#45;&gt;ENULL -->
<g id="edge2" class="edge">
<title>EINIT&#45;&gt;ENULL</title>
<path fill="none" stroke="#000000" d="M109.4395,-121.1366C125.4758,-129.0629 145.1799,-138.8023 163.1686,-147.6937"/>
<polygon fill="#000000" stroke="#000000" points="161.8751,-150.9585 172.3907,-152.2519 164.9769,-144.6832 161.8751,-150.9585"/>
<text text-anchor="middle" x="140.4029" y="-143.2215" font-family="Times,serif" font-size="14.00" fill="#000000">0</text>
</g>
<!-- EINIT&#45;&gt;EINT -->
<g id="edge4" class="edge">
<title>EINIT&#45;&gt;EINT</title>
<path fill="none" stroke="#000000" d="M109.4395,-88.9065C128.1817,-79.6426 151.934,-67.9024 172.1024,-57.9336"/>
<polygon fill="#000000" stroke="#000000" points="173.672,-61.062 181.0858,-53.4933 170.5702,-54.7867 173.672,-61.062"/>
<text text-anchor="middle" x="140.4029" y="-81.2215" font-family="Times,serif" font-size="14.00" fill="#000000">1&#45;9</text>
</g>
</g>
</svg>
