<?xml version="1.0" encoding="UTF-8" standalone="no"?>
<!DOCTYPE svg PUBLIC "-//W3C//DTD SVG 1.1//EN"
 "http://www.w3.org/Graphics/SVG/1.1/DTD/svg11.dtd">
<!-- Generated by graphviz version 2.40.1 (20161225.0304)
 -->
<!-- Title: finite_state_machine Pages: 1 -->
<svg width="576pt" height="260pt"
 viewBox="0.00 0.00 576.00 260.41" xmlns="http://www.w3.org/2000/svg" xmlns:xlink="http://www.w3.org/1999/xlink">
<g id="graph0" class="graph" transform="scale(.6019 .6019) rotate(0) translate(4 428.6568)">
<title>finite_state_machine</title>
<polygon fill="#ffffff" stroke="transparent" points="-4,4 -4,-428.6568 952.9834,-428.6568 952.9834,4 -4,4"/>
<!-- init -->
<g id="node1" class="node">
<title>init</title>
<ellipse fill="#000000" stroke="#000000" cx="1.8" cy="-300.2849" rx="1.8" ry="1.8"/>
</g>
<!-- EINIT -->
<g id="node5" class="node">
<title>EINIT</title>
<ellipse fill="none" stroke="#ff0000" cx="76.8363" cy="-300.2849" rx="36.4742" ry="36.4742"/>
<text text-anchor="middle" x="76.8363" y="-296.0849" font-family="Times,serif" font-size="14.00" fill="#000000">EINIT</text>
</g>
<!-- init&#45;&gt;EINIT -->
<g id="edge1" class="edge">
<title>init&#45;&gt;EINIT</title>
<path fill="none" stroke="#000000" d="M3.6548,-300.2849C7.7806,-300.2849 18.2899,-300.2849 30.0983,-300.2849"/>
<polygon fill="#000000" stroke="#000000" points="30.2112,-303.785 40.2111,-300.2849 30.2111,-296.785 30.2112,-303.785"/>
</g>
<!-- ECOM2 -->
<g id="node2" class="node">
<title>ECOM2</title>
<ellipse fill="none" stroke="#000000" cx="748.5952" cy="-66.2849" rx="43.5413" ry="43.5413"/>
<ellipse fill="none" stroke="#000000" cx="748.5952" cy="-66.2849" rx="47.5213" ry="47.5213"/>
<text text-anchor="middle" x="748.5952" y="-62.0849" font-family="Times,serif" font-size="14.00" fill="#000000">ECOM2</text>
</g>
<!-- token LITCOM2 -->
<g id="node8" class="node">
<title>token LITCOM2</title>
<polygon fill="none" stroke="#0000ff" points="949.1131,-84.2849 837.5949,-84.2849 837.5949,-48.2849 949.1131,-48.2849 949.1131,-84.2849"/>
<text text-anchor="middle" x="893.354" y="-62.0849" font-family="Times,serif" font-size="14.00" fill="#000000">token LITCOM2</text>
</g>
<!-- ECOM2&#45;&gt;token LITCOM2 -->
<g id="edge16" class="edge">
<title>ECOM2&#45;&gt;token LITCOM2</title>
<path fill="none" stroke="#0000ff" d="M796.3959,-66.2849C806.2783,-66.2849 816.8544,-66.2849 827.2562,-66.2849"/>
<polygon fill="#0000ff" stroke="#0000ff" points="837.5677,-66.2849 827.5677,-70.785 832.5677,-66.2849 827.5677,-66.285 827.5677,-66.285 827.5677,-66.285 832.5677,-66.2849 827.5676,-61.785 837.5677,-66.2849 837.5677,-66.2849"/>
</g>
<!-- ECOM -->
<g id="node3" class="node">
<title>ECOM</title>
<ellipse fill="none" stroke="#000000" cx="590.2904" cy="-238.2849" rx="38.8696" ry="38.8696"/>
<ellipse fill="none" stroke="#000000" cx="590.2904" cy="-238.2849" rx="42.8632" ry="42.8632"/>
<text text-anchor="middle" x="590.2904" y="-234.0849" font-family="Times,serif" font-size="14.00" fill="#000000">ECOM</text>
</g>
<!-- token LITCOM -->
<g id="node7" class="node">
<title>token LITCOM</title>
<polygon fill="none" stroke="#0000ff" points="800.8544,-256.2849 696.3361,-256.2849 696.3361,-220.2849 800.8544,-220.2849 800.8544,-256.2849"/>
<text text-anchor="middle" x="748.5952" y="-234.0849" font-family="Times,serif" font-size="14.00" fill="#000000">token LITCOM</text>
</g>
<!-- ECOM&#45;&gt;token LITCOM -->
<g id="edge9" class="edge">
<title>ECOM&#45;&gt;token LITCOM</title>
<path fill="none" stroke="#0000ff" d="M633.5479,-238.2849C649.7714,-238.2849 668.5474,-238.2849 686.1652,-238.2849"/>
<polygon fill="#0000ff" stroke="#0000ff" points="696.3765,-238.2849 686.3765,-242.785 691.3765,-238.2849 686.3765,-238.285 686.3765,-238.285 686.3765,-238.285 691.3765,-238.2849 686.3764,-233.785 696.3765,-238.2849 696.3765,-238.2849"/>
</g>
<!-- ESEP -->
<g id="node4" class="node">
<title>ESEP</title>
<ellipse fill="none" stroke="#000000" cx="225.7591" cy="-352.2849" rx="33.6364" ry="33.6364"/>
<ellipse fill="none" stroke="#000000" cx="225.7591" cy="-352.2849" rx="37.644" ry="37.644"/>
<text text-anchor="middle" x="225.7591" y="-348.0849" font-family="Times,serif" font-size="14.00" fill="#000000">ESEP</text>
</g>
<!-- ESEP&#45;&gt;ESEP -->
<g id="edge3" class="edge">
<title>ESEP&#45;&gt;ESEP</title>
<path fill="none" stroke="#000000" d="M213.0161,-387.8275C213.2106,-399.0239 217.4583,-407.8568 225.7591,-407.8568 231.3361,-407.8568 235.0836,-403.8695 237.0014,-397.857"/>
<polygon fill="#000000" stroke="#000000" points="240.4837,-398.2353 238.5021,-387.8275 233.5607,-397.1994 240.4837,-398.2353"/>
<text text-anchor="middle" x="225.7591" y="-412.0568" font-family="Times,serif" font-size="14.00" fill="#000000">\t, ,\n</text>
</g>
<!-- token LITSEP -->
<g id="node6" class="node">
<title>token LITSEP</title>
<polygon fill="none" stroke="#0000ff" points="424.0773,-380.2849 327.0972,-380.2849 327.0972,-344.2849 424.0773,-344.2849 424.0773,-380.2849"/>
<text text-anchor="middle" x="375.5872" y="-358.0849" font-family="Times,serif" font-size="14.00" fill="#000000">token LITSEP</text>
</g>
<!-- ESEP&#45;&gt;token LITSEP -->
<g id="edge4" class="edge">
<title>ESEP&#45;&gt;token LITSEP</title>
<path fill="none" stroke="#0000ff" d="M263.567,-354.8083C279.8028,-355.8919 299.1494,-357.1832 317.1587,-358.3852"/>
<polygon fill="#0000ff" stroke="#0000ff" points="327.2849,-359.061 317.0074,-362.885 322.296,-358.728 317.3071,-358.395 317.3071,-358.395 317.3071,-358.395 322.296,-358.728 317.6068,-353.905 327.2849,-359.061 327.2849,-359.061"/>
</g>
<!-- EINIT&#45;&gt;ESEP -->
<g id="edge2" class="edge">
<title>EINIT&#45;&gt;ESEP</title>
<path fill="none" stroke="#000000" d="M111.3765,-312.3454C131.9598,-319.5325 158.3212,-328.7373 180.5482,-336.4984"/>
<polygon fill="#000000" stroke="#000000" points="179.5172,-339.8456 190.112,-339.8378 181.8248,-333.2368 179.5172,-339.8456"/>
<text text-anchor="middle" x="145.6585" y="-333.4849" font-family="Times,serif" font-size="14.00" fill="#000000">\t, ,\n</text>
</g>
<!-- ESLASH -->
<g id="node9" class="node">
<title>ESLASH</title>
<ellipse fill="none" stroke="#000000" cx="225.7591" cy="-238.2849" rx="47.5293" ry="47.5293"/>
<text text-anchor="middle" x="225.7591" y="-234.0849" font-family="Times,serif" font-size="14.00" fill="#000000">ESLASH</text>
</g>
<!-- EINIT&#45;&gt;ESLASH -->
<g id="edge5" class="edge">
<title>EINIT&#45;&gt;ESLASH</title>
<path fill="none" stroke="#000000" d="M110.6292,-286.2161C128.862,-278.6253 151.7876,-269.0809 172.3718,-260.5112"/>
<polygon fill="#000000" stroke="#000000" points="173.7527,-263.7276 181.6394,-256.6529 171.0622,-257.2653 173.7527,-263.7276"/>
<text text-anchor="middle" x="145.6585" y="-280.4849" font-family="Times,serif" font-size="14.00" fill="#000000">/</text>
</g>
<!-- EDSLASH -->
<g id="node10" class="node">
<title>EDSLASH</title>
<ellipse fill="none" stroke="#000000" cx="375.5872" cy="-238.2849" rx="54.472" ry="54.472"/>
<text text-anchor="middle" x="375.5872" y="-234.0849" font-family="Times,serif" font-size="14.00" fill="#000000">EDSLASH</text>
</g>
<!-- ESLASH&#45;&gt;EDSLASH -->
<g id="edge6" class="edge">
<title>ESLASH&#45;&gt;EDSLASH</title>
<path fill="none" stroke="#000000" d="M273.5776,-238.2849C285.3532,-238.2849 298.1612,-238.2849 310.5977,-238.2849"/>
<polygon fill="#000000" stroke="#000000" points="310.9262,-241.785 320.9261,-238.2849 310.9261,-234.785 310.9262,-241.785"/>
<text text-anchor="middle" x="294.7737" y="-242.4849" font-family="Times,serif" font-size="14.00" fill="#000000">/</text>
</g>
<!-- ESLASHET -->
<g id="node11" class="node">
<title>ESLASHET</title>
<ellipse fill="none" stroke="#000000" cx="375.5872" cy="-72.2849" rx="59.1276" ry="59.1276"/>
<text text-anchor="middle" x="375.5872" y="-68.0849" font-family="Times,serif" font-size="14.00" fill="#000000">ESLASHET</text>
</g>
<!-- ESLASH&#45;&gt;ESLASHET -->
<g id="edge10" class="edge">
<title>ESLASH&#45;&gt;ESLASHET</title>
<path fill="none" stroke="#000000" d="M257.901,-202.6737C278.6399,-179.6963 305.9557,-149.4321 329.0497,-123.8454"/>
<polygon fill="#000000" stroke="#000000" points="331.6529,-126.185 335.7549,-116.4165 326.4565,-121.4948 331.6529,-126.185"/>
<text text-anchor="middle" x="294.7737" y="-168.4849" font-family="Times,serif" font-size="14.00" fill="#000000">*</text>
</g>
<!-- EDSLASH&#45;&gt;ECOM -->
<g id="edge8" class="edge">
<title>EDSLASH&#45;&gt;ECOM</title>
<path fill="none" stroke="#000000" d="M430.3214,-238.2849C463.0569,-238.2849 504.4647,-238.2849 536.9495,-238.2849"/>
<polygon fill="#000000" stroke="#000000" points="537.1608,-241.785 547.1607,-238.2849 537.1607,-234.785 537.1608,-241.785"/>
<text text-anchor="middle" x="479.4531" y="-242.4849" font-family="Times,serif" font-size="14.00" fill="#000000">\n</text>
</g>
<!-- EDSLASH&#45;&gt;EDSLASH -->
<g id="edge7" class="edge">
<title>EDSLASH&#45;&gt;EDSLASH</title>
<path fill="none" stroke="#000000" d="M361.0303,-291.0615C362.4537,-302.4858 367.306,-310.7709 375.5872,-310.7709 381.1512,-310.7709 385.1673,-307.0309 387.6355,-301.1115"/>
<polygon fill="#000000" stroke="#000000" points="391.118,-301.6115 390.1441,-291.0615 384.3264,-299.9161 391.118,-301.6115"/>
<text text-anchor="middle" x="375.5872" y="-314.9709" font-family="Times,serif" font-size="14.00" fill="#000000">all\{\n}</text>
</g>
<!-- ESLASHET&#45;&gt;ESLASHET -->
<g id="edge11" class="edge">
<title>ESLASHET&#45;&gt;ESLASHET</title>
<path fill="none" stroke="#000000" d="M361.2061,-129.9412C362.8248,-141.4159 367.6185,-149.5984 375.5872,-149.5984 380.9412,-149.5984 384.862,-145.9047 387.3494,-140.0005"/>
<polygon fill="#000000" stroke="#000000" points="390.8359,-140.5005 389.9683,-129.9412 384.0617,-138.7368 390.8359,-140.5005"/>
<text text-anchor="middle" x="375.5872" y="-153.7984" font-family="Times,serif" font-size="14.00" fill="#000000">all\{*}</text>
</g>
<!-- ESLASHDET -->
<g id="node12" class="node">
<title>ESLASHDET</title>
<ellipse fill="none" stroke="#000000" cx="590.2904" cy="-66.2849" rx="66.0704" ry="66.0704"/>
<text text-anchor="middle" x="590.2904" y="-62.0849" font-family="Times,serif" font-size="14.00" fill="#000000">ESLASHDET</text>
</g>
<!-- ESLASHET&#45;&gt;ESLASHDET -->
<g id="edge12" class="edge">
<title>ESLASHET&#45;&gt;ESLASHDET</title>
<path fill="none" stroke="#000000" d="M435.1021,-73.1322C441.1144,-73.1945 447.1287,-73.2475 452.9007,-73.2849 476.5024,-73.4375 482.4236,-74.2624 506.0055,-73.2849 508.5729,-73.1784 511.1831,-73.0538 513.8183,-72.9141"/>
<polygon fill="#000000" stroke="#000000" points="514.2935,-76.3921 524.0687,-72.306 513.879,-69.4044 514.2935,-76.3921"/>
<text text-anchor="middle" x="479.4531" y="-78.4849" font-family="Times,serif" font-size="14.00" fill="#000000">*</text>
</g>
<!-- ESLASHDET&#45;&gt;ECOM2 -->
<g id="edge15" class="edge">
<title>ESLASHDET&#45;&gt;ECOM2</title>
<path fill="none" stroke="#000000" d="M656.9671,-66.2849C668.1091,-66.2849 679.5894,-66.2849 690.4948,-66.2849"/>
<polygon fill="#000000" stroke="#000000" points="690.7446,-69.785 700.7445,-66.2849 690.7445,-62.785 690.7446,-69.785"/>
<text text-anchor="middle" x="676.5205" y="-70.4849" font-family="Times,serif" font-size="14.00" fill="#000000">/</text>
</g>
<!-- ESLASHDET&#45;&gt;ESLASHET -->
<g id="edge13" class="edge">
<title>ESLASHDET&#45;&gt;ESLASHET</title>
<path fill="none" stroke="#000000" d="M524.8709,-53.6893C502.0674,-50.8952 476.3282,-49.5326 452.9007,-52.4849 449.4984,-52.9136 446.0312,-53.4445 442.5436,-54.0539"/>
<polygon fill="#000000" stroke="#000000" points="441.8507,-50.6229 432.6976,-55.9589 443.1805,-57.4955 441.8507,-50.6229"/>
<text text-anchor="middle" x="479.4531" y="-57.4849" font-family="Times,serif" font-size="14.00" fill="#000000">all\{//, *}</text>
</g>
<!-- ESLASHDET&#45;&gt;ESLASHDET -->
<g id="edge14" class="edge">
<title>ESLASHDET&#45;&gt;ESLASHDET</title>
<path fill="none" stroke="#000000" d="M575.1112,-130.9532C577.0842,-142.5025 582.1439,-150.5697 590.2904,-150.5697 595.8911,-150.5697 600.0328,-146.7567 602.7156,-140.6206"/>
<polygon fill="#000000" stroke="#000000" points="606.0958,-141.5295 605.4696,-130.9532 599.3637,-139.6117 606.0958,-141.5295"/>
<text text-anchor="middle" x="590.2904" y="-154.7697" font-family="Times,serif" font-size="14.00" fill="#000000">*</text>
</g>
</g>
</svg>
